<svg width="40" height="40" viewBox="0 0 40 40" fill="none" xmlns="http://www.w3.org/2000/svg">
<path fill-rule="evenodd" clip-rule="evenodd" d="M17.48 30V20.62H15V17.24H17.48V14.34C17.48 13.5533 17.6467 12.8467 17.98 12.22C18.34 11.5267 18.8667 10.9933 19.56 10.62C20.32 10.2067 21.24 10 22.32 10C22.8933 10 23.46 10.02 24.02 10.06L24.7 10.14L24.62 13.28H22.46C21.9 13.28 21.52 13.4133 21.32 13.68C21.1467 13.8933 21.06 14.2533 21.06 14.76V17.24H24.72L24.56 20.62H21.06V30H17.48Z" fill="white"/>
<circle cx="20" cy="20" r="19.5" stroke="white"/>
</svg>
