<svg width="40" height="40" viewBox="0 0 40 40" fill="none" xmlns="http://www.w3.org/2000/svg">
<path fill-rule="evenodd" clip-rule="evenodd" d="M24.9699 10.0195C25.8784 10.0195 26.7168 10.2433 27.485 10.6909C28.2532 11.1384 28.8611 11.743 29.3086 12.5045C29.7562 13.266 29.98 14.0943 29.98 14.9895V25.0496C29.98 25.9447 29.7562 26.773 29.3086 27.5346C28.8611 28.2961 28.2532 28.9006 27.485 29.3482C26.7168 29.7958 25.8784 30.0195 24.9699 30.0195H14.99C14.0815 30.0195 13.2465 29.7958 12.485 29.3482C11.7234 28.9006 11.1189 28.2961 10.6713 27.5346C10.2238 26.773 10 25.9447 10 25.0496V14.9895C10 14.0943 10.2238 13.266 10.6713 12.5045C11.1189 11.743 11.7234 11.1384 12.485 10.6909C13.2465 10.2433 14.0815 10.0195 14.99 10.0195H24.9699ZM28.1163 25.0503V18.5574H24.3688C24.6761 19.1719 24.8297 19.8399 24.8297 20.5614C24.8297 21.4164 24.616 22.2047 24.1885 22.9261C23.7609 23.6475 23.1831 24.222 22.455 24.6495C21.7269 25.0771 20.9353 25.2908 20.0802 25.2908C19.2252 25.2908 18.4336 25.0771 17.7055 24.6495C16.9774 24.222 16.3996 23.6475 15.972 22.9261C15.5445 22.2047 15.3307 21.4164 15.3307 20.5614C15.3307 19.88 15.4844 19.212 15.7917 18.5574H11.8438V25.0503C11.8438 25.6115 11.9841 26.1325 12.2646 26.6135C12.5452 27.0944 12.9259 27.4752 13.4069 27.7558C13.8879 28.0363 14.4156 28.1766 14.9901 28.1766H24.97C25.5445 28.1766 26.0722 28.0363 26.5532 27.7558C27.0342 27.4752 27.4149 27.0944 27.6955 26.6135C27.976 26.1325 28.1163 25.6115 28.1163 25.0503ZM18.1163 20.5607C18.1163 21.0951 18.3101 21.556 18.6975 21.9434C19.0849 22.3309 19.5492 22.5246 20.0903 22.5246C20.6314 22.5246 21.0923 22.3309 21.473 21.9434C21.8538 21.556 22.0442 21.0917 22.0442 20.5507C22.0442 20.0096 21.8538 19.5486 21.473 19.1679C21.0923 18.7871 20.6314 18.5967 20.0903 18.5967C19.5492 18.5967 19.0849 18.7871 18.6975 19.1679C18.3101 19.5486 18.1163 20.0129 18.1163 20.5607ZM28.1163 16.7135V14.99C28.1163 14.4289 27.976 13.9079 27.6955 13.4269C27.4149 12.946 27.0342 12.5652 26.5532 12.2846C26.0722 12.0041 25.5445 11.8638 24.97 11.8638H14.9901C14.4156 11.8638 13.8879 12.0041 13.4069 12.2846C12.9259 12.5652 12.5452 12.946 12.2646 13.4269C11.9841 13.9079 11.8438 14.4289 11.8438 14.99V16.7135H17.3348C18.1497 16.1257 19.0649 15.8317 20.0802 15.8317C21.0956 15.8317 22.0108 16.1257 22.8257 16.7135H28.1163ZM26.1123 12.9862C26.2726 12.9862 26.4062 13.0396 26.5131 13.1465C26.62 13.2534 26.6734 13.3803 26.6734 13.5272V15.2507C26.6734 15.3976 26.62 15.5246 26.5131 15.6314C26.4062 15.7383 26.2726 15.7918 26.1123 15.7918H24.4089C24.2619 15.7918 24.1317 15.7383 24.0181 15.6314C23.9045 15.5246 23.8478 15.3976 23.8478 15.2507V13.5272C23.8478 13.3803 23.9045 13.2534 24.0181 13.1465C24.1317 13.0396 24.2619 12.9862 24.4089 12.9862H26.1123Z" fill="white"/>
<circle cx="20" cy="20" r="19.5" stroke="white"/>
</svg>
