<svg width="14" height="14" viewBox="0 0 14 14" fill="none" xmlns="http://www.w3.org/2000/svg">
<g clip-path="url(#clip0_13_1865)">
<path d="M13.4009 0.597418C12.9599 0.157001 12.3521 -0.0524154 11.7285 0.0123346C8.68056 0.349501 4.52664 1.33708 2.85189 3.01242C0.678395 5.18592 0.617728 8.676 2.65589 10.9318L0.0851447 13.5019C-0.0286053 13.6157 -0.0286053 13.8006 0.0851447 13.9143C0.142311 13.9715 0.216978 13.9995 0.291645 13.9995C0.366311 13.9995 0.440978 13.9709 0.498145 13.9143L3.06889 11.3436C4.16089 12.3306 5.53873 12.8299 6.92006 12.8299C8.39298 12.8299 9.86648 12.2693 10.9882 11.1476C13.1606 8.97525 13.8687 3.36825 13.9883 2.26633C14.056 1.64567 13.8419 1.03667 13.4015 0.596835L13.4009 0.597418ZM10.5752 10.7358C8.62923 12.6818 5.5084 12.743 3.48073 10.9318L9.24756 5.16492C9.36131 5.05117 9.36131 4.86625 9.24756 4.7525C9.13381 4.63875 8.9489 4.63875 8.83514 4.7525L3.06831 10.5193C1.25648 8.49167 1.31773 5.37083 3.26431 3.42483C4.94139 1.74775 9.57831 0.846501 11.9566 0.583418C12.3433 0.583418 12.712 0.734501 12.9885 1.01042C13.3035 1.32483 13.4563 1.76 13.4079 2.20392C13.0871 5.15383 12.1531 9.15842 10.5752 10.7358Z" fill="#3F7300"/>
</g>
<defs>
<clipPath id="clip0_13_1865">
<rect width="14" height="14" fill="white"/>
</clipPath>
</defs>
</svg>
