<svg width="128" height="52" viewBox="0 0 128 52" fill="none" xmlns="http://www.w3.org/2000/svg">
<path d="M13.7168 27.031C13.2141 27.031 12.7524 26.8874 12.3318 26.5899C11.9112 26.2924 11.6137 25.9128 11.4393 25.4307L2.86331 5.27283C2.68892 4.74965 2.40165 4.19569 2.00158 3.60071C1.6015 3.00572 1.17064 2.43125 0.719271 1.88755C0.216608 1.2823 -0.0192863 0.810412 0.00123059 0.4924C0.0217475 0.164131 0.339741 0 0.944989 0H8.52599C9.71597 0 10.2494 0.625761 10.116 1.88755C10.034 2.43125 10.0134 2.99546 10.0852 3.60071C10.1468 4.19569 10.2699 4.75991 10.4443 5.27283L17.0097 19.9321L21.1746 8.5145C21.2567 8.25804 21.2977 7.98106 21.2875 7.70408C21.2772 7.4271 21.2361 7.12961 21.1746 6.84237C21.113 6.54488 21.0412 6.25764 20.9797 5.96015C20.9181 5.66265 20.8566 5.38568 20.8156 5.12922C20.6822 3.86743 21.2156 3.24167 22.4056 3.24167H25.9551C26.5398 3.24167 26.8475 3.4058 26.8783 3.73407C26.9091 4.06234 26.6731 4.52397 26.1807 5.12922C25.9653 5.38568 25.7088 5.66265 25.4216 5.96015C25.1344 6.25764 24.8368 6.54488 24.5599 6.84237C24.2726 7.13987 24.0264 7.4271 23.811 7.70408C23.5956 7.99132 23.4315 8.25804 23.3186 8.5145L17.2046 25.4307C17.0302 25.9128 16.7327 26.2924 16.3121 26.5899C15.8915 26.8874 15.4299 27.031 14.9272 27.031H13.727H13.7168Z" fill="#5C3327"/>
<path d="M32.4492 11.7356C32.2748 11.7356 32.0491 11.7664 31.7824 11.8382C31.5157 11.91 31.249 12.0229 31.0028 12.1973C30.7566 12.3717 30.5411 12.6076 30.3667 12.9153C30.1924 13.2231 30.1205 13.6027 30.141 14.054C30.1821 14.4028 30.1513 14.7721 30.0487 15.1722C29.9359 15.5723 29.7615 15.9313 29.5153 16.2493C29.2691 16.5674 28.9408 16.8033 28.551 16.9777C28.1612 17.1521 27.6893 17.1931 27.1559 17.111C26.6737 17.0495 26.2531 16.8956 25.8838 16.6597C25.5145 16.4237 25.217 16.1262 24.9913 15.7775C24.7657 15.4287 24.6118 15.0491 24.54 14.6183C24.4682 14.1874 24.4784 13.7565 24.5912 13.3052C24.8067 12.4845 25.2683 11.8382 25.9556 11.3663C26.6532 10.9047 27.4328 10.5457 28.3151 10.2892C29.1973 10.0327 30.0898 9.87885 31.0028 9.8173C31.9158 9.75575 32.6954 9.72498 33.3417 9.72498C34.2137 9.72498 35.0959 9.77627 35.9883 9.88911C36.8911 10.002 37.7015 10.2379 38.4299 10.6072C39.1582 10.9765 39.7532 11.4997 40.2148 12.187C40.6764 12.8743 40.9124 13.7976 40.9124 14.967V22.2916C40.9124 22.8558 40.9637 23.2969 41.056 23.6046C41.1586 23.9226 41.3638 24.0765 41.692 24.0765C41.8664 24.0765 42.0101 24.0355 42.1127 23.9432C42.2255 23.8611 42.3178 23.779 42.4101 23.697C42.4922 23.6251 42.5743 23.5534 42.6563 23.5021C42.7281 23.4508 42.8205 23.4508 42.9333 23.5226C43.1077 23.6559 43.1796 23.8508 43.1488 24.1278C43.118 24.4048 43.0257 24.692 42.8718 24.9895C42.5025 25.7487 41.969 26.3334 41.2612 26.7437C40.5534 27.1541 39.6814 27.3592 38.6453 27.3592C37.7323 27.3592 36.9321 27.1848 36.2551 26.8258C35.5678 26.4667 35.0446 25.9128 34.6753 25.1537C34.0495 25.9128 33.3109 26.4667 32.4594 26.8258C31.6183 27.1848 30.5821 27.3592 29.3716 27.3592C27.5969 27.3592 26.1813 26.9899 25.1452 26.2411C24.1091 25.4922 23.5859 24.4561 23.5859 23.1328C23.5859 21.9838 23.945 21.0092 24.6733 20.2193C25.4017 19.4295 26.2942 18.7627 27.361 18.219C28.4279 17.6753 29.5768 17.2444 30.8079 16.9367C32.0389 16.6186 33.1571 16.393 34.1624 16.2391V14.8029C34.1624 13.8899 34.029 13.1513 33.752 12.5871C33.475 12.0229 33.0544 11.7459 32.4697 11.7459L32.4492 11.7356ZM34.1418 18.3113C33.0134 18.619 32.121 19.1012 31.4747 19.7782C30.8284 20.4553 30.5001 21.2657 30.5001 22.2198C30.5001 22.8455 30.654 23.3482 30.9515 23.7277C31.249 24.1073 31.6388 24.3022 32.0902 24.3022C32.3671 24.3022 32.6339 24.2304 32.8903 24.0868C33.1365 23.9432 33.3519 23.779 33.5366 23.5841C33.7212 23.3892 33.8649 23.184 33.9777 22.9686C34.0906 22.7532 34.1418 22.5685 34.1418 22.4147V18.3113Z" fill="#5C3327"/>
<path d="M52.0014 21.7582C52.0014 22.2813 52.0834 22.8353 52.2578 23.4303C52.4322 24.0253 52.6477 24.5998 52.9041 25.1332C53.4683 26.3642 53.1606 27.0002 51.9912 27.0207H45.1898C44.0614 27.0002 43.7536 26.3745 44.2768 25.1332C44.5538 24.5895 44.7795 24.0253 44.9436 23.4303C45.1078 22.8353 45.1898 22.2711 45.1898 21.7582V8.51453C45.1898 7.99135 45.1078 7.43739 44.9436 6.8424C44.7795 6.24742 44.5538 5.67295 44.2768 5.12925C44.0203 4.524 43.9588 4.09314 44.1127 3.82642C44.2666 3.56996 44.6256 3.37506 45.1898 3.2417L50.2985 2.23636C50.8012 2.12352 51.2012 2.25688 51.5193 2.62619C51.8373 2.99549 51.9912 3.42635 51.9912 3.92901V21.7582H52.0014Z" fill="#5C3327"/>
<path d="M62.4135 21.7582C62.4135 22.2813 62.4956 22.8353 62.67 23.4303C62.8444 24.0253 63.0598 24.5998 63.3163 25.1332C63.8805 26.3642 63.5727 27.0002 62.4033 27.0207H55.6019C54.4735 27.0002 54.1658 26.3745 54.689 25.1332C54.9659 24.5895 55.1916 24.0253 55.3557 23.4303C55.5199 22.8353 55.6019 22.2711 55.6019 21.7582V8.51453C55.6019 7.99135 55.5199 7.43739 55.3557 6.8424C55.1916 6.24742 54.9659 5.67295 54.689 5.12925C54.4325 4.524 54.3709 4.09314 54.5248 3.82642C54.6787 3.56996 55.0377 3.37506 55.6019 3.2417L60.7106 2.23636C61.2133 2.12352 61.6134 2.25688 61.9314 2.62619C62.2494 2.99549 62.4033 3.42635 62.4033 3.92901V21.7582H62.4135Z" fill="#5C3327"/>
<path d="M83.3107 34.4889C82.6336 34.4889 82.0079 34.3965 81.4129 34.2119C80.8179 34.0272 80.305 33.7708 79.8639 33.4322C79.433 33.0937 79.0842 32.6936 78.838 32.2115C78.5918 31.7293 78.4688 31.1959 78.4688 30.5804C78.4688 30.0777 78.5508 29.6469 78.7149 29.2776C78.8791 28.9083 79.0842 28.6005 79.351 28.3543C79.6074 28.1081 79.9049 27.9234 80.2332 27.8003C80.5614 27.6772 80.8897 27.626 81.2385 27.626C81.8027 27.626 82.3259 27.7901 82.8183 28.1286C83.3107 28.4672 83.6287 28.9698 83.7825 29.6366C83.8441 30.0059 83.957 30.3034 84.1417 30.4778C84.4187 30.7548 85.1573 31.8114 87.8552 31.0215C90.2967 30.3137 91.8047 27.031 91.8047 27.031C91.0866 27.031 90.43 26.8258 89.835 26.4257C89.2401 26.0256 88.8195 25.482 88.5836 24.7844L85.1367 15.3158C84.9623 14.7721 84.6853 14.2079 84.2955 13.6232C83.9056 13.0385 83.4749 12.464 82.9928 11.8998C81.9977 10.6893 82.0798 10.0635 83.2492 10.043H90.4711C91.6405 10.0635 92.174 10.679 92.0612 11.8998C91.9996 12.464 91.9893 13.0385 92.0304 13.6232C92.0714 14.2079 92.1843 14.7721 92.3587 15.3158L94.5027 21.1734L96.6467 15.3158C96.7287 15.0594 96.7698 14.7824 96.7595 14.4849C96.7492 14.1874 96.7082 13.9002 96.6467 13.6027C96.5851 13.3052 96.5133 13.018 96.4313 12.741C96.3492 12.464 96.2979 12.1768 96.2568 11.8998C96.144 10.6893 96.6775 10.0635 97.8469 10.043H101.396C102.545 10.0635 102.617 10.679 101.622 11.8998C101.386 12.187 101.119 12.464 100.842 12.741C100.555 13.018 100.278 13.3154 100.011 13.6027C99.7447 13.8899 99.4986 14.1874 99.2832 14.4849C99.0677 14.7824 98.9138 15.0491 98.8317 15.3158L94.5335 27.031C91.5791 34.4888 84.5007 34.4889 83.321 34.4889H83.3107Z" fill="#5C3327"/>
<path d="M81.0951 20.0039C80.9002 19.9629 80.6951 19.9937 80.4899 20.1065C80.2847 20.2194 80.0796 20.4553 79.8847 20.8246C79.4128 21.6043 78.7768 22.1582 77.9972 22.4865C77.2175 22.8147 76.4482 22.9789 75.689 22.9789C73.8836 22.9789 72.6833 22.1479 72.078 20.4758C73.6784 20.5579 75.094 20.4758 76.3251 20.1783C77.5458 19.9013 78.5818 19.491 79.4127 18.9576C80.2437 18.4241 80.8798 17.8086 81.3004 17.1008C81.721 16.393 81.9364 15.6544 81.9364 14.8747C81.9364 14.0027 81.6902 13.2539 81.1875 12.6179C80.6849 11.9818 80.0489 11.4484 79.2692 11.0278C78.4896 10.6072 77.6278 10.2892 76.6841 10.0635C75.7403 9.84808 74.8272 9.73523 73.9348 9.73523C72.673 9.73523 71.483 9.9404 70.3546 10.3507C69.2261 10.7611 68.2311 11.3561 67.3796 12.1254C66.5179 12.8948 65.8409 13.8284 65.3485 14.9055C64.8458 15.9929 64.5996 17.2034 64.5996 18.5472C64.5996 19.8911 64.8458 21.1118 65.3485 22.189C65.8511 23.2764 66.5077 24.1996 67.3284 24.969C68.1491 25.7384 69.103 26.3334 70.1904 26.7437C71.2778 27.1541 72.4063 27.3592 73.5757 27.3592C74.5708 27.3592 75.5043 27.2156 76.3763 26.9181C77.238 26.6206 78.0176 26.2205 78.705 25.7179C79.3923 25.205 79.9667 24.61 80.4488 23.9124C80.9207 23.2148 81.2695 22.466 81.4849 21.6658C81.6388 21.0605 81.6697 20.6399 81.5876 20.4143C81.5056 20.1886 81.3413 20.0552 81.0951 20.0039ZM71.4932 13.5719C71.5651 13.4488 71.6368 13.3462 71.7189 13.2334C71.801 13.1308 71.883 13.0385 71.9754 12.9564C72.8371 12.1665 74.0989 11.9613 75.1042 12.5563C76.1814 13.1923 76.6327 14.4746 76.2532 15.6133C76.1814 15.798 76.0993 15.9826 75.9967 16.157C75.9762 16.1981 75.9455 16.2391 75.9147 16.2904C75.8429 16.393 75.7711 16.5058 75.6788 16.6186C74.2939 18.3626 71.5138 18.7524 71.5138 18.7524C71.5138 18.7524 70.252 15.7262 71.483 13.5821L71.4932 13.5719Z" fill="#5C3327"/>
<path d="M53.0991 46.9015C53.0991 47.3734 53.1812 47.8863 53.3453 48.4197C53.5094 48.9634 53.7044 49.4764 53.9198 49.9688C54.4737 51.1074 54.1968 51.6819 53.0889 51.6819H46.6157C45.5078 51.6819 45.2411 51.1074 45.7848 49.9688C46.0002 49.4764 46.1951 48.9634 46.3593 48.4197C46.5234 47.876 46.6055 47.3734 46.6055 46.9015V34.8786C46.6055 34.4067 46.5234 33.9041 46.3593 33.3604C46.1951 32.8167 46.0002 32.3037 45.7848 31.8113C45.2308 30.6726 45.5078 30.0982 46.6157 30.0982H61.6238C61.8803 30.0982 62.0854 30.1802 62.229 30.3341C62.3726 30.488 62.4548 30.6932 62.4548 30.9291V34.9196C62.4548 35.33 62.3728 35.6377 62.2189 35.8224C62.065 36.007 61.87 36.0994 61.6546 36.0994C61.5315 36.0994 61.3981 36.0686 61.2443 36.007C60.8852 35.8326 60.5877 35.5146 60.3415 35.0735C60.0953 34.6324 59.8081 34.181 59.4798 33.7091C59.1516 33.2475 58.7413 32.8372 58.2386 32.4781C57.7359 32.1191 57.0281 31.9447 56.1253 31.9447H53.0786V39.9565H55.561C56.0329 39.9565 56.5357 39.8232 57.0691 39.5462C57.6026 39.2692 58.0642 38.9717 58.454 38.664C58.9669 38.2742 59.3362 38.069 59.5721 38.069C59.8696 38.069 60.0133 38.3973 60.0133 39.0435V42.7366C60.0133 43.3829 59.8696 43.7111 59.5721 43.7111C59.3362 43.7111 58.9567 43.5162 58.454 43.1161C58.0642 42.7981 57.5923 42.5006 57.0691 42.2339C56.5357 41.9569 56.0329 41.8236 55.561 41.8236H53.0786V46.9015H53.0991Z" fill="#76BC21"/>
<path d="M69.7383 38.6025C70.4051 37.6587 71.1437 36.9816 71.9542 36.5815C72.7646 36.1815 73.5852 35.9763 74.4366 35.9763C75.5548 35.9763 76.4575 36.2533 77.1449 36.8175C77.8322 37.3817 78.2528 38.0177 78.4272 38.7256C78.54 39.1359 78.5707 39.5462 78.5194 39.9566C78.4579 40.3566 78.3348 40.7362 78.1502 41.0953C77.9655 41.4543 77.709 41.7518 77.3808 42.0083C77.0525 42.2647 76.673 42.4494 76.2421 42.5725C75.9856 42.634 75.7087 42.6648 75.4112 42.6648C75.1137 42.6648 74.8264 42.634 74.5494 42.5725C74.2725 42.5109 74.0263 42.4186 73.8006 42.2955C73.5749 42.1724 73.3903 41.998 73.2365 41.7928C73.0826 41.5876 73.0005 41.3415 72.98 41.0645C72.9595 40.7054 72.8364 40.4285 72.6107 40.2028C72.385 39.9873 72.0977 39.8745 71.7386 39.8745C71.3488 39.8745 70.959 40.0181 70.5897 40.3053C70.2204 40.5926 69.9332 40.9619 69.728 41.4133V46.9118C69.728 47.3837 69.8101 47.8966 69.964 48.43C70.1178 48.9737 70.3231 49.4867 70.559 49.9791C71.0719 51.0972 70.7949 51.6717 69.728 51.6922H63.5524C62.5266 51.6717 62.2497 51.0972 62.7216 49.9791C62.978 49.4867 63.1832 48.9737 63.3268 48.43C63.4704 47.8863 63.5524 47.3837 63.5524 46.9118V41.9775C63.5524 41.5056 63.4807 41.0029 63.3268 40.4592C63.1832 39.9155 62.978 39.4026 62.7216 38.9102C62.4856 38.3562 62.4343 37.9664 62.5779 37.7305C62.7113 37.4945 63.0395 37.3201 63.5524 37.197L68.1893 36.284C68.6406 36.1815 69.0099 36.3046 69.2971 36.6431C69.5844 36.9816 69.728 37.3714 69.728 37.8228V38.623L69.7383 38.6025Z" fill="#76BC21"/>
<path d="M96.5328 41.085C96.5328 40.3361 96.7072 39.6488 97.0663 39.0333C97.4253 38.4178 97.928 37.8741 98.5845 37.4227C99.241 36.9714 100.041 36.6123 100.975 36.3559C101.908 36.0994 102.955 35.9763 104.124 35.9763C104.893 35.9763 105.694 36.0378 106.514 36.1712C107.345 36.2943 108.104 36.5097 108.792 36.8072C109.479 37.1047 110.043 37.5048 110.495 38.0075C110.936 38.5101 111.161 39.1359 111.161 39.8848C111.161 40.3156 111.079 40.6849 110.925 40.9824C110.772 41.2799 110.566 41.5056 110.33 41.6595C110.094 41.8133 109.828 41.9262 109.53 41.998C109.233 42.0698 108.945 42.1006 108.668 42.1006C107.961 42.1006 107.407 41.9159 107.017 41.5364C106.627 41.1671 106.422 40.6439 106.422 39.9668C106.422 39.7719 106.401 39.5462 106.36 39.3C106.319 39.0538 106.237 38.8179 106.104 38.5922C105.971 38.3665 105.796 38.1819 105.57 38.028C105.345 37.8844 105.047 37.8023 104.668 37.8023C104.114 37.8023 103.642 37.9664 103.252 38.2947C102.862 38.623 102.657 38.9923 102.657 39.4026C102.657 39.813 102.872 40.2028 103.303 40.5105C103.734 40.8183 104.278 41.1055 104.924 41.3825C105.571 41.6595 106.289 41.9467 107.048 42.2545C107.817 42.5622 108.525 42.9315 109.171 43.3726C109.817 43.8137 110.361 44.3574 110.792 44.9935C111.223 45.6295 111.438 46.4194 111.438 47.3426C111.438 48.071 111.305 48.6967 111.038 49.1994C110.772 49.7123 110.423 50.1329 109.992 50.4715C109.561 50.81 109.069 51.0767 108.525 51.2819C107.981 51.487 107.437 51.6409 106.884 51.7435C106.33 51.8461 105.806 51.9077 105.304 51.9384C104.801 51.9692 104.37 51.9795 104.022 51.9795C103.119 51.9795 102.206 51.9179 101.293 51.7845C100.38 51.6512 99.5488 51.446 98.8307 51.1485C98.1023 50.851 97.5074 50.451 97.056 49.9483C96.6046 49.4456 96.3789 48.8199 96.3789 48.071C96.3789 47.6196 96.461 47.2503 96.6148 46.9631C96.7687 46.6758 96.9842 46.4604 97.2304 46.2963C97.4766 46.1322 97.7741 46.0296 98.0921 45.9578C98.4101 45.8859 98.7178 45.8552 99.0358 45.8552C99.7231 45.8552 100.246 45.9988 100.585 46.2963C100.923 46.5938 101.098 47.1067 101.098 47.8351C101.098 48.071 101.118 48.3275 101.17 48.5839C101.221 48.8506 101.313 49.0968 101.447 49.3225C101.58 49.5482 101.785 49.7431 102.052 49.897C102.319 50.0509 102.667 50.1329 103.098 50.1329C103.724 50.1329 104.257 49.9585 104.678 49.62C105.099 49.2712 105.314 48.8711 105.314 48.389C105.314 47.9069 105.099 47.4965 104.668 47.1888C104.237 46.881 103.683 46.5938 103.026 46.3271C102.37 46.0603 101.652 45.8039 100.903 45.5474C100.144 45.2909 99.4359 44.9729 98.7793 44.5831C98.1228 44.2036 97.5689 43.7214 97.138 43.1675C96.7072 42.6032 96.4917 41.9057 96.4917 41.0542L96.5328 41.085Z" fill="#76BC21"/>
<path d="M94.2854 45.3115C94.111 45.2705 93.9264 45.3115 93.7418 45.4038C93.5571 45.5064 93.3724 45.7218 93.1981 46.0501C92.7672 46.7579 92.1927 47.2606 91.4848 47.5581C90.777 47.8556 90.0795 47.9992 89.3922 47.9992C87.7611 47.9992 86.6634 47.2401 86.1094 45.7218C87.5661 45.8039 88.8484 45.7218 89.9666 45.4551C91.0745 45.1987 92.0183 44.8294 92.7774 44.3472C93.5365 43.8651 94.1111 43.3008 94.4906 42.6648C94.8702 42.0288 95.065 41.3517 95.065 40.6439C95.065 39.854 94.8394 39.1667 94.3881 38.5922C93.9367 38.0177 93.3519 37.5253 92.6441 37.1458C91.9362 36.7662 91.1567 36.4687 90.295 36.2738C89.4333 36.0789 88.6023 35.9763 87.8021 35.9763C86.6634 35.9763 85.576 36.161 84.5501 36.5405C83.5243 36.9201 82.6217 37.4535 81.842 38.1511C81.0624 38.8487 80.4468 39.6899 79.9955 40.6747C79.5441 41.6595 79.3184 42.7674 79.3184 43.9882C79.3184 45.2089 79.5441 46.3168 79.9955 47.3016C80.4468 48.2864 81.0521 49.1276 81.8009 49.8252C82.5498 50.5228 83.4115 51.0665 84.3964 51.4358C85.3812 51.8051 86.407 52 87.4739 52C88.3766 52 89.2281 51.8666 90.018 51.5999C90.8079 51.3332 91.5054 50.9742 92.1311 50.5023C92.7466 50.0406 93.2801 49.4969 93.711 48.8609C94.1418 48.2352 94.4599 47.5478 94.6548 46.8195C94.7882 46.2655 94.8189 45.886 94.7471 45.6808C94.665 45.4756 94.5213 45.3525 94.3059 45.3115H94.2854ZM85.5145 39.5975C85.576 39.495 85.6478 39.3924 85.7196 39.2898C85.7914 39.1975 85.8633 39.1154 85.9454 39.0333C86.725 38.3153 87.8739 38.1306 88.7869 38.6743C89.7614 39.2488 90.1718 40.4182 89.8333 41.4543C89.7717 41.6185 89.6999 41.7826 89.6076 41.9467C89.5871 41.9878 89.5564 42.0288 89.5358 42.0596C89.4743 42.1519 89.4024 42.2545 89.3203 42.3571C88.0585 43.9471 85.5453 44.2857 85.5453 44.2857C85.5453 44.2857 84.4066 41.5364 85.5145 39.5873V39.5975Z" fill="#76BC21"/>
<path d="M127.412 49.9483C127.176 49.4457 126.971 48.9225 126.807 48.3685C126.643 47.8146 126.571 47.3017 126.571 46.8195V40.9004C126.571 39.3206 126.12 38.0588 125.217 37.115C124.314 36.1712 123.073 35.6994 121.493 35.6994C120.529 35.6994 119.616 35.9045 118.744 36.3251C117.872 36.7457 117.082 37.433 116.384 38.3973V28.0671C116.477 26.6617 116.548 22.2403 113.953 19.6654C110.845 16.5879 105.08 17.3573 105.08 17.3573C105.08 17.3573 104.362 23.1225 107.47 26.2103C109.05 27.7799 111.317 28.3441 113.173 28.5287C113.338 28.898 113.491 29.2878 113.594 29.6777C113.748 30.2316 113.82 32.2423 113.82 32.7244V46.8093C113.82 47.2914 113.748 47.8043 113.594 48.3583C113.44 48.9122 113.235 49.4354 112.979 49.9381C112.496 51.0767 112.773 51.6615 113.82 51.682H116.384C117.461 51.6615 117.749 51.0767 117.226 49.9381C116.99 49.4354 116.784 48.9122 116.631 48.3583C116.466 47.8043 116.395 47.2914 116.395 46.8093V41.2184C116.538 40.9004 116.692 40.6337 116.877 40.4388C117.061 40.2438 117.246 40.0797 117.431 39.9566C117.626 39.8335 117.81 39.7617 117.985 39.7207C118.169 39.6796 118.323 39.6591 118.467 39.6591C119.052 39.6591 119.503 39.9156 119.831 40.4285C120.159 40.9414 120.324 41.6185 120.324 42.4597V46.8195C120.324 47.3017 120.241 47.8146 120.088 48.3685C119.923 48.9225 119.718 49.4457 119.462 49.9483C118.98 51.087 119.267 51.6717 120.334 51.6923H126.581C127.658 51.6717 127.946 51.087 127.422 49.9483H127.412Z" fill="#76BC21"/>
<path d="M113.327 10.9663C115.472 13.0898 114.979 17.0701 114.979 17.0701C114.979 17.0701 111.009 17.6035 108.855 15.48C106.701 13.3565 107.203 9.37624 107.203 9.37624C107.203 9.37624 111.173 8.84281 113.327 10.9663Z" fill="#76BC21"/>
<path d="M123.738 26.9284C121.604 29.0621 117.624 28.5389 117.624 28.5389C117.624 28.5389 117.111 24.5587 119.255 22.4249C121.389 20.2912 125.369 20.8143 125.369 20.8143C125.369 20.8143 125.882 24.7946 123.738 26.9284Z" fill="#76BC21"/>
<path d="M124.94 7.63227C122.806 6.38074 120.108 6.80134 118.292 8.48372C118.097 8.65812 117.923 8.86328 117.759 9.06845C117.595 9.29413 117.43 9.54033 117.287 9.78653C114.681 14.331 117.348 20.7631 117.348 20.7631C117.348 20.7631 123.237 19.9526 126.191 16.2391C126.376 16.0032 126.54 15.7672 126.684 15.5415C126.745 15.4492 126.796 15.3569 126.848 15.2645C127.063 14.8952 127.237 14.5054 127.381 14.1156C128.181 11.6946 127.227 8.96586 124.94 7.622V7.63227ZM121.903 15.1722C120.405 15.1722 119.185 13.9617 119.185 12.4537C119.185 10.9457 120.395 9.73524 121.903 9.73524C123.411 9.73524 124.611 10.9457 124.611 12.4537C124.611 13.9617 123.401 15.1722 121.903 15.1722Z" fill="#76BC21"/>
</svg>
