<svg width="148" height="60" viewBox="0 0 148 60" fill="none" xmlns="http://www.w3.org/2000/svg">
<path d="M15.827 31.1896C15.247 31.1896 14.7143 31.0239 14.229 30.6806C13.7437 30.3373 13.4005 29.8994 13.1992 29.3431L3.30382 6.08404C3.1026 5.48037 2.77114 4.84118 2.30951 4.15466C1.84788 3.46813 1.35074 2.80528 0.829928 2.17794C0.249932 1.47958 -0.0222534 0.935091 0.00141991 0.568154C0.0250932 0.189381 0.392009 0 1.09037 0H9.83768C11.2107 0 11.8262 0.722031 11.6723 2.17794C11.5776 2.80528 11.5539 3.4563 11.6368 4.15466C11.7078 4.84118 11.8499 5.49221 12.0511 6.08404L19.6265 22.9986L24.4322 9.82443C24.5269 9.52851 24.5743 9.20891 24.5625 8.88932C24.5506 8.56973 24.5032 8.22647 24.4322 7.89505C24.3612 7.55178 24.2783 7.22036 24.2073 6.87709C24.1363 6.53383 24.0653 6.21424 24.018 5.91833C23.8641 4.46242 24.4796 3.74039 25.8526 3.74039H29.9481C30.6228 3.74039 30.9779 3.92977 31.0134 4.30854C31.0489 4.68731 30.7767 5.21996 30.2085 5.91833C29.9599 6.21424 29.664 6.53383 29.3326 6.87709C29.0012 7.22036 28.6579 7.55178 28.3383 7.89505C28.0069 8.23831 27.7228 8.56973 27.4742 8.88932C27.2257 9.22075 27.0363 9.52851 26.9061 9.82443L19.8514 29.3431C19.6502 29.8994 19.307 30.3373 18.8217 30.6806C18.3364 31.0239 17.8037 31.1896 17.2237 31.1896H15.8388H15.827Z" fill="white"/>
<path d="M37.4417 13.5412C37.2404 13.5412 36.9801 13.5767 36.6723 13.6595C36.3646 13.7424 36.0568 13.8726 35.7727 14.0738C35.4886 14.275 35.2401 14.5473 35.0389 14.9024C34.8376 15.2575 34.7547 15.6954 34.7784 16.2162C34.8258 16.6187 34.7903 17.0448 34.6719 17.5064C34.5417 17.9681 34.3405 18.3823 34.0564 18.7493C33.7723 19.1162 33.3935 19.3885 32.9437 19.5897C32.494 19.7909 31.9495 19.8382 31.334 19.7435C30.7777 19.6725 30.2924 19.495 29.8662 19.2227C29.4401 18.9505 29.0969 18.6072 28.8365 18.2048C28.5761 17.8024 28.3985 17.3644 28.3156 16.8672C28.2328 16.3701 28.2446 15.873 28.3748 15.3522C28.6234 14.4052 29.1561 13.6595 29.9491 13.115C30.754 12.5824 31.6536 12.1681 32.6715 11.8722C33.6895 11.5763 34.7193 11.3987 35.7727 11.3277C36.8262 11.2567 37.7258 11.2212 38.4715 11.2212C39.4776 11.2212 40.4955 11.2803 41.5253 11.4106C42.5669 11.5408 43.502 11.813 44.3424 12.2391C45.1828 12.6652 45.8694 13.2689 46.402 14.062C46.9347 14.855 47.2069 15.9203 47.2069 17.2697V25.7211C47.2069 26.3721 47.2661 26.8811 47.3726 27.2362C47.491 27.6031 47.7277 27.7806 48.1065 27.7806C48.3077 27.7806 48.4735 27.7333 48.5918 27.6268C48.722 27.5321 48.8285 27.4374 48.9351 27.3427C49.0298 27.2598 49.1244 27.177 49.2191 27.1178C49.302 27.0586 49.4086 27.0586 49.5388 27.1415C49.74 27.2953 49.8229 27.5202 49.7873 27.8398C49.7518 28.1594 49.6453 28.4908 49.4677 28.8341C49.0416 29.71 48.4261 30.3847 47.6094 30.8582C46.7926 31.3316 45.7865 31.5684 44.591 31.5684C43.5376 31.5684 42.6143 31.3671 41.8331 30.9529C41.04 30.5386 40.4364 29.8994 40.0103 29.0235C39.2882 29.8994 38.4359 30.5386 37.4535 30.9529C36.4829 31.3671 35.2874 31.5684 33.8907 31.5684C31.8429 31.5684 30.2095 31.1423 29.014 30.2782C27.8185 29.4141 27.2148 28.2186 27.2148 26.6917C27.2148 25.366 27.6291 24.2415 28.4695 23.3301C29.3099 22.4186 30.3397 21.6493 31.5707 21.0219C32.8017 20.3946 34.1274 19.8974 35.5478 19.5423C36.9682 19.1754 38.2584 18.915 39.4184 18.7374V17.0803C39.4184 16.0268 39.2645 15.1746 38.9449 14.5236C38.6253 13.8726 38.14 13.553 37.4654 13.553L37.4417 13.5412ZM39.3947 21.1284C38.0927 21.4835 37.0629 22.0399 36.3172 22.8211C35.5715 23.6023 35.1927 24.5374 35.1927 25.6382C35.1927 26.3602 35.3703 26.9402 35.7136 27.3782C36.0568 27.8162 36.5066 28.0411 37.0274 28.0411C37.347 28.0411 37.6548 27.9582 37.9507 27.7925C38.2348 27.6268 38.4833 27.4374 38.6963 27.2125C38.9094 26.9876 39.0752 26.7509 39.2054 26.5023C39.3356 26.2537 39.3947 26.0406 39.3947 25.8631V21.1284Z" fill="white"/>
<path d="M60.0013 25.1056C60.0013 25.7093 60.096 26.3485 60.2972 27.035C60.4984 27.7215 60.747 28.3844 61.0429 28.9999C61.6939 30.4203 61.3389 31.1541 59.9895 31.1778H52.1418C50.8398 31.1541 50.4847 30.4321 51.0883 28.9999C51.4079 28.3725 51.6683 27.7215 51.8577 27.035C52.0471 26.3485 52.1418 25.6974 52.1418 25.1056V9.8245C52.1418 9.22083 52.0471 8.58164 51.8577 7.89512C51.6683 7.20859 51.4079 6.54574 51.0883 5.9184C50.7924 5.22004 50.7214 4.72289 50.899 4.41514C51.0765 4.11922 51.4908 3.89433 52.1418 3.74046L58.0364 2.58045C58.6164 2.45025 59.0781 2.60413 59.445 3.03025C59.8119 3.45637 59.9895 3.95352 59.9895 4.53351V25.1056H60.0013Z" fill="white"/>
<path d="M72.015 25.1056C72.015 25.7093 72.1097 26.3485 72.3109 27.035C72.5121 27.7215 72.7607 28.3844 73.0566 28.9999C73.7077 30.4203 73.3525 31.1541 72.0032 31.1778H64.1555C62.8534 31.1541 62.4984 30.4321 63.102 28.9999C63.4216 28.3725 63.682 27.7215 63.8714 27.035C64.0608 26.3485 64.1555 25.6974 64.1555 25.1056V9.8245C64.1555 9.22083 64.0608 8.58164 63.8714 7.89512C63.682 7.20859 63.4216 6.54574 63.102 5.9184C62.8061 5.22004 62.7351 4.72289 62.9126 4.41514C63.0902 4.11922 63.5044 3.89433 64.1555 3.74046L70.0501 2.58045C70.6301 2.45025 71.0918 2.60413 71.4587 3.03025C71.8257 3.45637 72.0032 3.95352 72.0032 4.53351V25.1056H72.015Z" fill="white"/>
<path d="M96.1279 39.7946C95.3467 39.7946 94.6247 39.688 93.9381 39.475C93.2516 39.2619 92.6598 38.966 92.1508 38.5754C91.6536 38.1848 91.2512 37.7232 90.9671 37.1668C90.683 36.6105 90.541 35.995 90.541 35.2848C90.541 34.7048 90.6357 34.2077 90.8251 33.7816C91.0145 33.3554 91.2512 33.0003 91.559 32.7163C91.8549 32.4322 92.1981 32.2191 92.5769 32.0771C92.9557 31.935 93.3344 31.8759 93.7369 31.8759C94.3879 31.8759 94.9916 32.0652 95.5597 32.4559C96.1279 32.8465 96.4948 33.4265 96.6723 34.1958C96.7433 34.622 96.8737 34.9652 97.0867 35.1664C97.4063 35.486 98.2585 36.7052 101.372 35.7938C104.189 34.9771 105.929 31.1893 105.929 31.1893C105.1 31.1893 104.343 30.9526 103.656 30.491C102.969 30.0293 102.484 29.402 102.212 28.5971L98.2348 17.6719C98.0336 17.0445 97.7139 16.3935 97.2642 15.7188C96.8144 15.0441 96.3173 14.3813 95.761 13.7303C94.6129 12.3335 94.7076 11.6115 96.0569 11.5878H104.39C105.739 11.6115 106.355 12.3217 106.225 13.7303C106.154 14.3813 106.142 15.0441 106.189 15.7188C106.236 16.3935 106.367 17.0445 106.568 17.6719L109.042 24.4306L111.516 17.6719C111.61 17.376 111.658 17.0564 111.646 16.7131C111.634 16.3698 111.587 16.0384 111.516 15.6951C111.445 15.3519 111.362 15.0205 111.267 14.7009C111.172 14.3813 111.113 14.0499 111.066 13.7303C110.936 12.3335 111.551 11.6115 112.9 11.5878H116.996C118.322 11.6115 118.404 12.3217 117.256 13.7303C116.984 14.0617 116.676 14.3813 116.357 14.7009C116.025 15.0205 115.706 15.3637 115.398 15.6951C115.09 16.0266 114.806 16.3698 114.558 16.7131C114.309 17.0564 114.131 17.3641 114.037 17.6719L109.077 31.1893C105.668 39.7946 97.5009 39.7946 96.1397 39.7946H96.1279Z" fill="white"/>
<path d="M93.5704 23.0816C93.3455 23.0342 93.1088 23.0697 92.8721 23.1999C92.6353 23.3301 92.3986 23.6024 92.1737 24.0285C91.6293 24.9281 90.8954 25.5673 89.9958 25.946C89.0963 26.3248 88.2085 26.5142 87.3326 26.5142C85.2493 26.5142 83.8644 25.5554 83.1661 23.626C85.0126 23.7207 86.6461 23.626 88.0665 23.2828C89.475 22.9632 90.6704 22.4897 91.6292 21.8742C92.5879 21.2587 93.3219 20.5485 93.8072 19.7318C94.2925 18.9151 94.5411 18.0628 94.5411 17.1632C94.5411 16.1571 94.257 15.293 93.677 14.5592C93.097 13.8253 92.3632 13.2098 91.4636 12.7245C90.564 12.2392 89.5697 11.8723 88.4807 11.6118C87.3917 11.3633 86.3382 11.2331 85.3084 11.2331C83.8525 11.2331 82.4795 11.4698 81.1775 11.9433C79.8754 12.4167 78.7272 13.1033 77.7448 13.991C76.7505 14.8788 75.9693 15.9559 75.4012 17.1987C74.8212 18.4534 74.5371 19.8502 74.5371 21.4008C74.5371 22.9514 74.8212 24.3599 75.4012 25.6028C75.9812 26.8575 76.7388 27.9228 77.6857 28.8105C78.6326 29.6982 79.7333 30.3848 80.988 30.8582C82.2427 31.3317 83.5448 31.5684 84.8942 31.5684C86.0423 31.5684 87.1194 31.4027 88.1256 31.0595C89.1198 30.7162 90.0194 30.2546 90.8125 29.6746C91.6056 29.0827 92.2684 28.3962 92.8247 27.5913C93.3692 26.7864 93.7716 25.9224 94.0202 24.9991C94.1977 24.3007 94.2334 23.8154 94.1387 23.555C94.044 23.2946 93.8545 23.1407 93.5704 23.0816ZM82.4913 15.66C82.5742 15.5179 82.657 15.3996 82.7517 15.2694C82.8464 15.151 82.9411 15.0445 83.0476 14.9498C84.0419 14.0384 85.4978 13.8016 86.6578 14.4881C87.9007 15.222 88.4215 16.7016 87.9835 18.0155C87.9007 18.2285 87.806 18.4416 87.6876 18.6428C87.6639 18.6902 87.6285 18.7375 87.593 18.7967C87.5101 18.9151 87.4273 19.0453 87.3208 19.1755C85.7228 21.1877 82.515 21.6375 82.515 21.6375C82.515 21.6375 81.0591 18.1457 82.4795 15.6718L82.4913 15.66Z" fill="white"/>
<path d="M61.2669 54.1171C61.2669 54.6616 61.3617 55.2534 61.5511 55.8689C61.7405 56.4963 61.9654 57.0881 62.2139 57.6563C62.8531 58.9701 62.5335 59.633 61.2552 59.633H53.7862C52.5078 59.633 52.2001 58.9701 52.8274 57.6563C53.076 57.0881 53.3009 56.4963 53.4903 55.8689C53.6796 55.2416 53.7744 54.6616 53.7744 54.1171V40.2446C53.7744 39.7001 53.6796 39.1201 53.4903 38.4927C53.3009 37.8654 53.076 37.2735 52.8274 36.7054C52.1882 35.3915 52.5078 34.7287 53.7862 34.7287H71.1032C71.3991 34.7287 71.6358 34.8234 71.8015 35.0009C71.9672 35.1785 72.062 35.4152 72.062 35.6874V40.2919C72.062 40.7654 71.9674 41.1205 71.7898 41.3335C71.6123 41.5466 71.3873 41.6531 71.1387 41.6531C70.9967 41.6531 70.8428 41.6176 70.6652 41.5466C70.251 41.3454 69.9077 40.9784 69.6236 40.4695C69.3395 39.9605 69.0081 39.4397 68.6294 38.8952C68.2506 38.3625 67.7772 37.8891 67.1972 37.4748C66.6172 37.0605 65.8004 36.8593 64.7588 36.8593H61.2433V46.1037H64.1077C64.6522 46.1037 65.2323 45.9498 65.8478 45.6302C66.4633 45.3106 66.9959 44.9674 67.4457 44.6123C68.0375 44.1625 68.4636 43.9258 68.7359 43.9258C69.0791 43.9258 69.2449 44.3045 69.2449 45.0502V49.3114C69.2449 50.0571 69.0791 50.4359 68.7359 50.4359C68.4636 50.4359 68.0257 50.211 67.4457 49.7494C66.9959 49.3824 66.4515 49.0392 65.8478 48.7314C65.2323 48.4118 64.6522 48.258 64.1077 48.258H61.2433V54.1171H61.2669Z" fill="#76BC21"/>
<path d="M80.4655 44.5413C81.2348 43.4523 82.0871 42.6711 83.0222 42.2095C83.9573 41.7479 84.9042 41.5111 85.8866 41.5111C87.1768 41.5111 88.2184 41.8307 89.0115 42.4817C89.8045 43.1327 90.2898 43.8666 90.4911 44.6833C90.6213 45.1568 90.6567 45.6303 90.5976 46.1037C90.5265 46.5654 90.3845 47.0033 90.1715 47.4176C89.9584 47.8319 89.6625 48.1751 89.2837 48.4711C88.9049 48.767 88.467 48.98 87.9699 49.1221C87.6739 49.1931 87.3544 49.2286 87.0112 49.2286C86.6679 49.2286 86.3364 49.1931 86.0168 49.1221C85.6972 49.0511 85.4131 48.9445 85.1527 48.8025C84.8923 48.6605 84.6793 48.4592 84.5018 48.2225C84.3243 47.9858 84.2296 47.7017 84.2059 47.3821C84.1822 46.9678 84.0402 46.6482 83.7798 46.3878C83.5194 46.1393 83.1878 46.009 82.7736 46.009C82.3238 46.009 81.874 46.1748 81.4479 46.5062C81.0217 46.8376 80.6903 47.2637 80.4536 47.7845V54.129C80.4536 54.6735 80.5483 55.2653 80.7258 55.8808C80.9034 56.5081 81.1402 57.1 81.4125 57.6681C82.0043 58.9583 81.6846 59.6212 80.4536 59.6449H73.3279C72.1443 59.6212 71.8247 58.9583 72.3692 57.6681C72.6651 57.1 72.9018 56.5081 73.0676 55.8808C73.2333 55.2535 73.3279 54.6735 73.3279 54.129V48.4356C73.3279 47.8911 73.2451 47.3111 73.0676 46.6837C72.9018 46.0564 72.6651 45.4646 72.3692 44.8964C72.097 44.2572 72.0378 43.8074 72.2035 43.5352C72.3574 43.2629 72.7361 43.0617 73.3279 42.9197L78.6781 41.8662C79.1989 41.7478 79.625 41.8899 79.9564 42.2805C80.2878 42.6711 80.4536 43.1209 80.4536 43.6417V44.565L80.4655 44.5413Z" fill="#76BC21"/>
<path d="M111.383 47.4058C111.383 46.5417 111.584 45.7486 111.998 45.0384C112.412 44.3282 112.992 43.7009 113.75 43.1801C114.508 42.6593 115.431 42.245 116.508 41.9491C117.585 41.6532 118.792 41.5111 120.142 41.5111C121.03 41.5111 121.953 41.5821 122.9 41.736C123.858 41.878 124.734 42.1266 125.527 42.4699C126.32 42.8132 126.972 43.2748 127.492 43.8548C128.001 44.4348 128.262 45.1568 128.262 46.0209C128.262 46.518 128.167 46.9441 127.99 47.2874C127.812 47.6307 127.575 47.8911 127.303 48.0686C127.031 48.2462 126.723 48.3764 126.38 48.4592C126.036 48.5421 125.705 48.5776 125.385 48.5776C124.569 48.5776 123.929 48.3645 123.48 47.9266C123.03 47.5005 122.793 46.8968 122.793 46.1156C122.793 45.8907 122.769 45.6303 122.722 45.3462C122.675 45.0621 122.58 44.7899 122.426 44.5295C122.272 44.2691 122.071 44.056 121.811 43.8784C121.55 43.7127 121.207 43.618 120.769 43.618C120.13 43.618 119.586 43.8074 119.136 44.1862C118.686 44.565 118.449 44.9911 118.449 45.4646C118.449 45.938 118.698 46.3878 119.195 46.7429C119.692 47.098 120.319 47.4294 121.065 47.749C121.811 48.0686 122.639 48.4001 123.515 48.7552C124.403 49.1103 125.22 49.5364 125.965 50.0453C126.711 50.5543 127.338 51.1817 127.836 51.9155C128.333 52.6494 128.581 53.5608 128.581 54.6261C128.581 55.4665 128.427 56.1886 128.12 56.7686C127.812 57.3604 127.409 57.8457 126.912 58.2363C126.415 58.6269 125.847 58.9347 125.22 59.1714C124.592 59.4081 123.965 59.5857 123.326 59.7041C122.687 59.8224 122.083 59.8934 121.503 59.929C120.923 59.9645 120.426 59.9763 120.023 59.9763C118.982 59.9763 117.928 59.9053 116.875 59.7514C115.821 59.5975 114.863 59.3608 114.034 59.0175C113.194 58.6743 112.507 58.2126 111.986 57.6326C111.466 57.0526 111.205 56.3306 111.205 55.4665C111.205 54.9457 111.3 54.5196 111.477 54.1882C111.655 53.8567 111.904 53.6082 112.188 53.4188C112.472 53.2294 112.815 53.111 113.182 53.0282C113.549 52.9453 113.904 52.9098 114.271 52.9098C115.064 52.9098 115.667 53.0755 116.058 53.4188C116.449 53.7621 116.65 54.3539 116.65 55.1943C116.65 55.4665 116.674 55.7624 116.733 56.0584C116.792 56.3661 116.899 56.6502 117.052 56.9106C117.206 57.171 117.443 57.3959 117.751 57.5735C118.059 57.751 118.461 57.8457 118.958 57.8457C119.68 57.8457 120.296 57.6445 120.781 57.2539C121.266 56.8514 121.515 56.3898 121.515 55.8335C121.515 55.2771 121.266 54.8037 120.769 54.4486C120.272 54.0935 119.633 53.7621 118.875 53.4543C118.118 53.1466 117.289 52.8506 116.425 52.5547C115.549 52.2588 114.732 51.8919 113.975 51.4421C113.217 51.0041 112.578 50.4478 112.081 49.8086C111.584 49.1576 111.335 48.3527 111.335 47.3703L111.383 47.4058Z" fill="#76BC21"/>
<path d="M108.791 52.2827C108.59 52.2354 108.377 52.2827 108.164 52.3892C107.951 52.5076 107.738 52.7562 107.537 53.135C107.039 53.9517 106.376 54.5317 105.56 54.8749C104.743 55.2182 103.938 55.3839 103.145 55.3839C101.263 55.3839 99.9965 54.508 99.3573 52.7562C101.038 52.8509 102.518 52.7562 103.808 52.4484C105.086 52.1525 106.175 51.7264 107.051 51.1701C107.927 50.6137 108.59 49.9627 109.028 49.2289C109.466 48.495 109.691 47.7138 109.691 46.897C109.691 45.9856 109.43 45.1926 108.91 44.5297C108.389 43.8668 107.714 43.2987 106.897 42.8607C106.081 42.4228 105.181 42.0795 104.187 41.8546C103.193 41.6297 102.234 41.5114 101.31 41.5114C99.9965 41.5114 98.7418 41.7244 97.5581 42.1624C96.3745 42.6003 95.333 43.2158 94.4334 44.0207C93.5338 44.8256 92.8236 45.7962 92.3027 46.9325C91.7819 48.0689 91.5215 49.3472 91.5215 50.7558C91.5215 52.1644 91.7819 53.4427 92.3027 54.579C92.8236 55.7153 93.5219 56.6859 94.386 57.4908C95.2501 58.2957 96.2444 58.9231 97.3807 59.3492C98.517 59.7753 99.7007 60.0002 100.932 60.0002C101.973 60.0002 102.956 59.8463 103.867 59.5386C104.779 59.2308 105.583 58.8165 106.305 58.2721C107.016 57.7394 107.631 57.1121 108.128 56.3782C108.625 55.6562 108.992 54.8631 109.217 54.0227C109.371 53.3835 109.407 52.9456 109.324 52.7088C109.229 52.4721 109.063 52.3301 108.815 52.2827H108.791ZM98.6709 45.6897C98.7419 45.5713 98.8247 45.453 98.9075 45.3346C98.9904 45.2281 99.0734 45.1334 99.1681 45.0387C100.068 44.2101 101.393 43.9971 102.447 44.6244C103.571 45.2872 104.045 46.6366 103.654 47.8321C103.583 48.0215 103.5 48.2109 103.394 48.4003C103.37 48.4476 103.335 48.495 103.311 48.5305C103.24 48.637 103.157 48.7554 103.062 48.8738C101.606 50.7084 98.7064 51.099 98.7064 51.099C98.7064 51.099 97.3925 47.9268 98.6709 45.6779V45.6897Z" fill="#76BC21"/>
<path d="M147.011 57.6329C146.739 57.0529 146.502 56.4492 146.313 55.81C146.124 55.1708 146.041 54.579 146.041 54.0227V47.1929C146.041 45.3701 145.52 43.9142 144.478 42.8252C143.437 41.7362 142.004 41.1917 140.182 41.1917C139.069 41.1917 138.016 41.4285 137.009 41.9138C136.003 42.3991 135.092 43.1921 134.287 44.3048V32.3853C134.393 30.7637 134.476 25.6621 131.482 22.6911C127.895 19.1401 121.243 20.0278 121.243 20.0278C121.243 20.0278 120.414 26.68 124.001 30.2428C125.824 32.0539 128.44 32.7049 130.582 32.9179C130.771 33.344 130.949 33.7938 131.067 34.2436C131.245 34.8828 131.328 37.2028 131.328 37.7591V54.0108C131.328 54.5672 131.245 55.159 131.067 55.7982C130.89 56.4374 130.653 57.041 130.357 57.621C129.801 58.9349 130.12 59.6096 131.328 59.6333H134.287C135.53 59.6096 135.861 58.9349 135.258 57.621C134.985 57.041 134.749 56.4374 134.571 55.7982C134.382 55.159 134.299 54.5672 134.299 54.0108V47.5599C134.464 47.1929 134.642 46.8852 134.855 46.6603C135.068 46.4354 135.281 46.246 135.494 46.104C135.719 45.9619 135.932 45.8791 136.133 45.8317C136.347 45.7844 136.524 45.7607 136.69 45.7607C137.364 45.7607 137.885 46.0566 138.264 46.6484C138.643 47.2403 138.832 48.0215 138.832 48.9921V54.0227C138.832 54.579 138.737 55.1708 138.56 55.81C138.371 56.4492 138.134 57.0529 137.838 57.6329C137.282 58.9467 137.613 59.6214 138.844 59.6451H146.053C147.295 59.6214 147.627 58.9467 147.023 57.6329H147.011Z" fill="#76BC21"/>
<path d="M130.76 12.6536C133.234 15.1038 132.666 19.6964 132.666 19.6964C132.666 19.6964 128.085 20.3119 125.599 17.8617C123.113 15.4115 123.693 10.8189 123.693 10.8189C123.693 10.8189 128.274 10.2034 130.76 12.6536Z" fill="#76BC21"/>
<path d="M142.775 31.0711C140.313 33.5331 135.72 32.9294 135.72 32.9294C135.72 32.9294 135.128 28.3368 137.602 25.8748C140.064 23.4128 144.657 24.0164 144.657 24.0164C144.657 24.0164 145.249 28.6091 142.775 31.0711Z" fill="#76BC21"/>
<path d="M144.158 8.80651C141.696 7.36243 138.583 7.84774 136.488 9.78895C136.263 9.99017 136.062 10.2269 135.872 10.4636C135.683 10.724 135.494 11.0081 135.328 11.2922C132.321 16.5358 135.399 23.9574 135.399 23.9574C135.399 23.9574 142.193 23.0223 145.602 18.7375C145.815 18.4652 146.005 18.193 146.17 17.9326C146.241 17.826 146.3 17.7195 146.36 17.613C146.608 17.1869 146.809 16.7371 146.975 16.2873C147.898 13.4938 146.797 10.3453 144.158 8.79466V8.80651ZM140.654 17.5064C138.926 17.5064 137.518 16.1097 137.518 14.3697C137.518 12.6297 138.914 11.233 140.654 11.233C142.394 11.233 143.779 12.6297 143.779 14.3697C143.779 16.1097 142.382 17.5064 140.654 17.5064Z" fill="#76BC21"/>
</svg>
