<svg width="223" height="215" viewBox="0 0 223 215" fill="none" xmlns="http://www.w3.org/2000/svg">
<path d="M138.005 148.742C116.035 159.63 89.8318 152.632 75.8405 133.436C75.6856 133.513 75.4996 133.605 75.3447 133.682C75.2207 133.743 75.0968 133.805 74.9728 133.866C89.2102 153.559 115.985 160.699 138.466 149.595C149.033 144.358 156.979 135.859 161.681 125.953C161.154 126.368 160.595 126.8 160.006 127.169C155.338 136.208 147.843 143.904 138.051 148.757L138.005 148.742Z" fill="#75B843"/>
<path d="M93.8647 59.6794C110.102 51.632 128.678 53.3649 142.931 62.5747L143.922 62.0833C129.361 52.4077 110.167 50.5174 93.4341 58.8105C78.0643 66.4279 68.306 80.8505 65.9079 96.6505L66.9615 96.1283C69.4817 80.8863 79.0217 67.0357 93.8491 59.7258L93.8647 59.6794Z" fill="#75B843"/>
<path d="M189.504 113.4L189.473 113.415C188.016 114.137 186.717 114.24 185.649 114.112C185.556 114.236 185.448 114.328 185.354 114.452C184.594 115.254 183.803 115.994 182.919 116.625C182.159 117.195 181.369 117.702 180.625 118.148C180.284 118.317 179.99 118.502 179.711 118.64C175.356 136.956 163.209 153.258 145.02 162.273C115.241 177.032 79.625 167.007 61.5255 140.144C61.3857 140.329 61.2303 140.561 61.0751 140.715L61.1213 140.808L61.0285 140.777C60.2835 141.61 59.3995 142.319 58.4079 142.81L56.1149 143.947C55.836 144.085 55.5261 144.239 55.1852 144.407L55.4969 154.149C55.5238 155.527 56.557 156.677 57.9023 156.899L67.7682 158.504L70.6641 168.085C71.047 169.403 72.3595 170.26 73.7213 170.126L83.6723 169.098L88.9693 177.605C89.7085 178.785 91.1459 179.271 92.4469 178.781L101.802 175.227L109.1 182.086C110.102 183.019 111.634 183.149 112.766 182.317L120.859 176.451L129.679 181.163C130.899 181.834 132.401 181.515 133.255 180.435L139.559 172.672L149.299 174.957C149.964 175.13 150.645 175.024 151.234 174.733C151.822 174.441 152.319 173.963 152.584 173.329L156.664 164.194L166.659 163.879C168.036 163.854 169.184 162.821 169.405 161.475L170.996 151.602L180.566 148.715C181.882 148.333 182.737 147.02 182.602 145.657L181.563 135.696L190.057 130.404C191.235 129.666 191.719 128.228 191.228 126.925L187.666 117.558L193.61 111.249C193.347 111.418 193.067 111.634 192.758 111.788L189.566 113.369L189.504 113.4Z" fill="#75B843"/>
<path d="M44.4713 105.033C44.8621 103.641 45.8734 101.709 48.5074 100.404L50.3666 99.4824C51.7176 76.7411 64.8536 55.3488 86.7151 44.5526C111.35 32.3433 139.942 37.0748 159.339 54.2493C160.128 54.1286 160.948 54.0701 161.815 54.1046C161.815 54.0271 161.846 53.9344 161.846 53.857L161.863 53.6557C162.019 52.9596 162.207 52.3255 162.425 51.7534C162.893 50.5166 163.53 49.3888 164.307 48.3855L163.967 48.3222L161.071 38.7408C160.688 37.4231 159.376 36.566 158.014 36.6998L148.063 37.7275L142.766 29.2202C142.027 28.0404 140.589 27.5545 139.288 28.0446L129.933 31.5988L122.635 24.7402C121.633 23.807 120.101 23.6768 118.969 24.5084L110.876 30.3748L102.056 25.6624C100.836 24.9915 99.3343 25.3105 98.4802 26.391L92.1761 34.1539L82.436 31.8687C81.0909 31.569 79.7274 32.2447 79.1513 33.4966L75.071 42.6313L65.0758 42.9465C63.6988 42.9718 62.5508 44.0046 62.3303 45.3509L60.7387 55.2235L51.169 58.1109C49.8529 58.4926 48.9981 59.8053 49.1333 61.1685L50.1715 71.1293L41.6778 76.4213C40.4998 77.1597 40.016 78.5978 40.5072 79.9005L44.069 89.2678L37.2247 96.5639C36.2935 97.5666 36.1653 99.0991 36.9974 100.233L42.6984 108.153L44.1858 107.416C44.1265 106.518 44.2372 105.729 44.4247 105.094L44.4713 105.033Z" fill="#75B843"/>
<path d="M174.221 123.139C168.977 138.726 157.97 151.332 143.22 158.642C128.501 165.937 111.805 167.061 96.21 161.763C82.2071 157.03 70.6468 147.645 63.1337 135.134C63.1314 135.908 63.0364 136.651 62.8177 137.378C70.5023 149.456 82.0017 158.484 95.7264 163.124C111.677 168.516 128.76 167.394 143.851 159.915C158.942 152.435 170.196 139.552 175.565 123.594C175.956 122.434 176.299 121.259 176.643 120.083C176.101 120.313 175.543 120.512 174.986 120.711C174.736 121.531 174.517 122.335 174.221 123.139Z" fill="#75B843"/>
<path d="M57.5143 83.6865C62.7584 68.0995 73.7645 55.4937 88.5146 48.1834C103.265 40.8732 119.93 39.7646 135.525 45.0623C142.619 47.4605 149.076 51.0639 154.755 55.6706C155.22 55.4402 155.716 55.2719 156.273 55.0729C150.347 50.1245 143.52 46.2409 136.009 43.7016C120.058 38.3096 102.975 39.4319 87.884 46.9111C72.7931 54.3903 61.5387 67.2738 56.1697 83.2319C54.5153 88.1492 53.4948 93.1775 53.0469 98.1927C53.5427 97.947 54.0537 97.8097 54.5336 97.6878C54.9806 92.9823 55.9692 88.279 57.5143 83.6865Z" fill="#75B843"/>
<path d="M59.7708 89.7192C59.6769 90.075 59.7534 90.385 59.9848 90.6182C60.2161 90.8514 60.5405 91.0385 61.0198 91.1489C61.9937 91.4006 62.5515 91.1242 62.7392 90.4127C62.8175 90.1033 62.8186 89.7162 62.7736 89.236L63.5621 89.425C63.6383 89.8125 63.6216 90.246 63.4965 90.6945C63.3553 91.3443 63.0292 91.7765 62.5644 92.0069C62.0995 92.2372 61.5115 92.2968 60.8003 92.108C60.3521 91.9823 59.9657 91.8259 59.657 91.5924C59.3483 91.3588 59.1481 91.0328 59.0563 90.6918C58.9645 90.3508 58.9502 89.9326 59.0287 89.5458C59.1228 89.1126 59.3096 88.7108 59.6356 88.356L60.3304 88.8234C60.3304 88.8234 60.0974 89.1321 60.0042 89.2556C59.9264 89.4101 59.8486 89.5647 59.8018 89.7038L59.7708 89.7192Z" fill="#5C3428"/>
<path d="M64.8729 85.6057L64.0921 88.0801L59.8261 86.7154L60.6069 84.2411L61.3488 84.4919L60.8491 86.0538L61.7764 86.3673L62.2449 84.8981L62.9868 85.1489L62.5029 86.587L63.6004 86.9322L64.1001 85.3703L64.8419 85.6211L64.8729 85.6057Z" fill="#5C3428"/>
<path d="M64.1698 82.7072L65.7614 83.3486L65.3875 84.2297L61.2463 82.4939L61.7295 81.2881C61.9478 80.7161 62.2273 80.3456 62.5682 80.1767C62.9091 80.0077 63.2495 79.9936 63.6822 80.1657C63.9294 80.2752 64.1146 80.4153 64.2533 80.6171C64.3609 80.8344 64.484 81.0826 64.4677 81.3613C65.6597 81.1184 66.4337 80.9667 66.7743 80.8752L66.3692 81.8491L64.3724 82.1816L64.1854 82.6608L64.1698 82.7072ZM63.4435 82.41L63.5681 82.1163C63.6928 81.8226 63.7088 81.6214 63.6939 81.4355C63.648 81.265 63.5401 81.1252 63.3546 81.0625C63.1538 80.9688 62.9681 80.9835 62.8595 81.076C62.7046 81.1528 62.5802 81.369 62.4865 81.6474L62.3929 81.9257L63.5055 82.3793L63.4435 82.41Z" fill="#5C3428"/>
<path d="M68.0503 78.3874L67.6146 79.2218L64.3397 77.5206L63.7951 78.6023L63.0844 78.2587L64.6404 75.2456L65.351 75.5891L64.8064 76.6708L68.0812 78.3721L68.0503 78.3874Z" fill="#5C3428"/>
<path d="M69.217 76.2244L65.3714 73.9169L65.8534 73.0982L69.699 75.4057L69.217 76.2244Z" fill="#5C3428"/>
<path d="M71.1443 73.1818L70.6006 73.9538L66.9104 71.4147L68.3709 69.2993L69.0194 69.751L68.1027 71.0944L69.0445 71.7486L69.8836 70.4823L70.5321 70.934L69.6775 72.1693L71.1443 73.1818Z" fill="#5C3428"/>
<path d="M72.9308 70.7116L69.396 67.9408L69.9861 67.1845L73.5209 69.9553L72.9308 70.7116Z" fill="#5C3428"/>
<path d="M76.2689 66.6993L74.5614 68.6278L71.1974 65.6565L72.9049 63.7279L73.4758 64.2567L72.3892 65.4911L73.1299 66.129L74.1389 64.9717L74.7408 65.4852L73.7318 66.6424L74.6114 67.4048L75.698 66.1704L76.2998 66.6839L76.2689 66.6993Z" fill="#5C3428"/>
<path d="M78.4039 61.4278C78.8974 61.9563 79.1433 62.5302 79.1107 63.0875C79.0781 63.6448 78.7825 64.2165 78.2084 64.7716L77.293 65.6505L74.2084 62.3861L75.2324 61.4148C75.7598 60.9214 76.3176 60.645 76.8591 60.6472C77.4316 60.6341 77.9414 60.8839 78.4349 61.4124L78.4039 61.4278ZM77.7057 62.1217C77.0425 61.4067 76.4083 61.3731 75.7722 61.9589L75.3999 62.2981L77.4204 64.4277L77.7151 64.1657C78.3668 63.5335 78.3842 62.8677 77.69 62.1681L77.7057 62.1217Z" fill="#5C3428"/>
<path d="M82.8462 60.7337L80.1958 57.0994L80.9556 56.5296L83.1282 59.5115L84.6012 58.4337L85.0635 59.0549L82.8308 60.7026L82.8462 60.7337Z" fill="#5C3428"/>
<path d="M88.481 54.3461C88.8659 54.9671 89.0034 55.5561 88.8935 56.1131C88.7682 56.639 88.442 57.0713 87.853 57.4405C87.264 57.8097 86.6913 57.9003 86.1967 57.7589C85.6556 57.6018 85.2236 57.1974 84.8387 56.5765C84.4383 55.9245 84.3162 55.3665 84.4262 54.8095C84.5515 54.2836 84.8776 53.8514 85.4666 53.4821C86.0556 53.1129 86.6283 53.0224 87.123 53.1637C87.633 53.3362 88.096 53.7252 88.481 54.3461ZM85.6602 56.0534C85.9065 56.4725 86.1996 56.7524 86.4932 56.8775C86.7868 57.0025 87.1118 56.9574 87.4373 56.7575C88.0883 56.3575 88.1674 55.7385 87.6285 54.8846C87.1205 54.0154 86.5023 53.7806 85.8823 54.1652C85.5415 54.3341 85.3705 54.6121 85.3386 54.9372C85.3067 55.2622 85.4139 55.6343 85.6602 56.0534Z" fill="#5C3428"/>
<path d="M90.9959 51.3989C90.6861 51.5525 90.4997 51.7994 90.4214 52.1088C90.3585 52.4492 90.4348 52.8366 90.6347 53.2401C91.0807 54.14 91.6059 54.4209 92.303 54.114C92.5819 53.9758 92.892 53.7448 93.2179 53.39L93.5717 54.1037C93.2923 54.3968 92.9666 54.6742 92.5484 54.8428C91.9596 55.1346 91.4335 55.1634 90.9391 54.9446C90.4601 54.7568 90.0437 54.3061 89.7207 53.6544C89.5207 53.251 89.4291 52.8325 89.4303 52.4454C89.4314 52.0583 89.5253 51.7025 89.7273 51.4092C89.9293 51.1158 90.224 50.8538 90.5958 50.6695C90.9987 50.4698 91.4167 50.3786 91.9118 50.3652L91.9713 51.1861C91.9713 51.1861 91.5999 51.2155 91.4142 51.2303C91.2285 51.245 91.0581 51.2907 90.9342 51.3522L90.9959 51.3989Z" fill="#5C3428"/>
<path d="M97.5982 52.7266L96.9201 51.8257L95.4022 52.4234L95.4917 53.5387L94.516 53.9063L94.3908 49.1366L95.4595 48.7228L98.543 52.3744L97.5672 52.742L97.5982 52.7266ZM96.4271 51.1424C95.7951 50.3346 95.4561 49.8842 95.3636 49.7754C95.2711 49.6666 95.2249 49.5735 95.1632 49.5268C95.1779 49.7901 95.2378 50.4562 95.312 51.5404L96.4117 51.1114L96.4271 51.1424Z" fill="#5C3428"/>
<path d="M99.6115 52.0381L98.3556 47.7127L99.2691 47.4532L100.295 51.0034L102.045 50.4841L102.259 51.2282L99.5961 52.007L99.6115 52.0381Z" fill="#5C3428"/>
<path d="M108.321 46.9484C108.397 47.4132 108.319 47.8 108.055 48.1241C107.791 48.4482 107.404 48.6014 106.846 48.723L106.459 48.7989L106.702 50.3793L105.773 50.5303L105.044 46.0988L106.468 45.8568C107.01 45.7816 107.412 45.8143 107.736 46.0014C108.06 46.1885 108.261 46.5145 108.337 46.9794L108.321 46.9484ZM106.291 47.993L106.616 47.9479C106.91 47.9181 107.127 47.8106 107.236 47.6407C107.36 47.5019 107.392 47.3317 107.362 47.1148C107.331 46.8978 107.254 46.7427 107.131 46.6493C107.007 46.5559 106.806 46.5395 106.559 46.585L106.125 46.6452L106.353 47.9623L106.291 47.993Z" fill="#5C3428"/>
<path d="M110.963 48.0741L111.082 49.7933L110.123 49.8823L109.796 45.4059L111.095 45.3029C111.699 45.2744 112.163 45.3537 112.487 45.5408C112.78 45.7433 112.981 46.0693 112.979 46.5339C112.994 46.7972 112.962 47.0448 112.822 47.23C112.698 47.4463 112.512 47.6159 112.233 47.7541C112.973 48.7017 113.482 49.3386 113.697 49.6182L112.66 49.7069L111.459 48.0606L110.932 48.0894L110.963 48.0741ZM110.919 47.2842L111.213 47.2544C111.507 47.2246 111.74 47.1482 111.848 47.0557C111.988 46.9479 112.05 46.7623 112.035 46.5764C112.005 46.3595 111.928 46.2044 111.805 46.111C111.65 46.0329 111.403 46.0009 111.109 46.0307L110.815 46.0605L110.904 47.2531L110.919 47.2842Z" fill="#5C3428"/>
<path d="M118.933 47.4099C118.915 48.1531 118.728 48.7098 118.356 49.1263C117.983 49.5429 117.441 49.6955 116.745 49.6927C116.049 49.6898 115.554 49.471 115.153 49.0513C114.799 48.6472 114.63 48.0736 114.648 47.3304C114.665 46.5872 114.853 46.0305 115.241 45.645C115.629 45.2595 116.155 45.0758 116.851 45.0787C117.547 45.0815 118.073 45.285 118.428 45.689C118.782 46.0931 118.951 46.6667 118.933 47.4099ZM115.653 47.3345C115.636 47.8455 115.744 48.2175 115.913 48.4815C116.082 48.7454 116.376 48.8705 116.763 48.872C117.505 48.8906 117.909 48.3812 117.912 47.3748C117.915 46.3683 117.576 45.8404 116.803 45.8372C116.416 45.8357 116.122 45.9428 115.935 46.1898C115.749 46.4368 115.624 46.8079 115.607 47.3189L115.653 47.3345Z" fill="#5C3428"/>
<path d="M124.3 47.9584C124.205 48.7012 123.925 49.2266 123.475 49.5654C123.026 49.9042 122.391 50.0255 121.602 49.9139L120.334 49.7693L120.858 45.2964L122.25 45.4569C122.992 45.5529 123.502 45.8027 123.872 46.2378C124.242 46.6729 124.364 47.2309 124.285 47.9273L124.3 47.9584ZM123.326 47.8615C123.437 46.9174 123.082 46.3585 122.232 46.2776L121.737 46.2136L121.403 49.1233L121.806 49.1559C122.718 49.2836 123.23 48.8366 123.357 47.8461L123.326 47.8615Z" fill="#5C3428"/>
<path d="M129.981 46.8822L129.338 49.7133C129.26 50.0227 129.135 50.3163 128.934 50.5323C128.732 50.7483 128.484 50.8711 128.174 50.9473C127.865 51.0234 127.54 50.9911 127.169 50.9432C126.612 50.8325 126.211 50.5676 125.964 50.2259C125.718 49.8843 125.657 49.4504 125.751 48.9398L126.363 46.1242L127.275 46.3292L126.679 49.0211C126.616 49.3615 126.631 49.6248 126.723 49.811C126.816 49.9972 127.032 50.1219 127.341 50.2006C127.65 50.2793 127.898 50.2339 128.069 50.1107C128.239 49.9875 128.348 49.7402 128.457 49.4155L129.053 46.7236L129.965 46.9286L129.981 46.8822Z" fill="#5C3428"/>
<path d="M133.58 48.6932C133.256 48.5835 132.931 48.6286 132.683 48.8289C132.435 49.0292 132.217 49.3689 132.061 49.8328C131.764 50.7916 131.979 51.3809 132.674 51.6161C132.984 51.6947 133.355 51.7427 133.85 51.7293L133.616 52.5025C133.213 52.5473 132.796 52.4837 132.378 52.3426C131.745 52.1542 131.343 51.8119 131.144 51.3311C130.913 50.8656 130.961 50.2619 131.149 49.5504C131.274 49.1018 131.492 48.7621 131.771 48.469C132.05 48.1759 132.345 47.9913 132.701 47.9308C133.041 47.8393 133.444 47.8719 133.861 48.013C134.278 48.1541 134.664 48.3879 135.019 48.7146L134.491 49.3628C134.352 49.2383 134.213 49.1139 134.075 48.9894C133.936 48.865 133.781 48.7869 133.611 48.7553L133.58 48.6932Z" fill="#5C3428"/>
<path d="M137.308 54.1126L134.898 53.1427L136.581 48.9842L138.961 49.9695L138.665 50.696L137.166 50.086L136.807 50.9981L138.213 51.5768L137.917 52.3034L136.511 51.7247L136.075 52.7913L137.574 53.4014L137.278 54.1279L137.308 54.1126Z" fill="#5C3428"/>
<path d="M140.265 53.6137L139.487 55.159L138.653 54.722L140.676 50.7043L141.85 51.282C142.406 51.5475 142.746 51.8431 142.915 52.1845C143.084 52.5258 143.067 52.8819 142.85 53.2991C142.741 53.5464 142.554 53.716 142.337 53.8235C142.121 53.931 141.842 53.9918 141.563 53.9752C141.699 55.1835 141.821 55.9737 141.866 56.2991L140.939 55.8308L140.744 53.8015L140.281 53.5673L140.265 53.6137ZM140.623 52.9338L140.885 53.0743C141.148 53.2147 141.364 53.2621 141.55 53.2473C141.736 53.2326 141.86 53.0938 141.969 52.9239C142.062 52.723 142.063 52.5681 141.986 52.413C141.909 52.2578 141.724 52.1177 141.43 51.9926L141.167 51.8522L140.623 52.9338Z" fill="#5C3428"/>
<path d="M145.685 57.2283C145.467 57.5681 145.188 57.7837 144.817 57.8132C144.445 57.8426 144.043 57.7326 143.611 57.4831C143.209 57.2182 142.885 56.9536 142.67 56.5966L143.136 55.8243C143.305 56.0882 143.49 56.3057 143.645 56.4612C143.799 56.6167 143.938 56.7412 144.092 56.8192C144.262 56.9283 144.432 56.96 144.556 56.9759C144.695 56.9455 144.788 56.8995 144.882 56.776C144.928 56.7142 144.959 56.6215 144.96 56.544C144.929 56.482 144.914 56.3735 144.867 56.2804C144.821 56.1873 144.714 55.9701 144.513 55.7215C144.344 55.4576 144.236 55.2404 144.19 55.0698C144.113 54.9147 144.099 54.7288 144.13 54.5586C144.161 54.3884 144.193 54.2182 144.317 54.0019C144.535 53.6622 144.783 53.4619 145.139 53.4014C145.495 53.3409 145.851 53.4353 146.283 53.6848C146.499 53.8096 146.653 53.965 146.808 54.1205C146.962 54.276 147.101 54.4779 147.27 54.6644L146.619 55.1417C146.48 54.9399 146.326 54.7844 146.218 54.6446C146.126 54.5358 146.002 54.4424 145.848 54.3643C145.693 54.2863 145.554 54.2393 145.446 54.2543C145.307 54.2847 145.229 54.3618 145.167 54.4699C145.12 54.5317 145.089 54.6245 145.12 54.6865C145.15 54.7486 145.15 54.826 145.165 54.9345C145.181 55.0429 145.319 55.2448 145.535 55.5244C145.797 55.8971 145.92 56.2228 145.965 56.4707C145.98 56.734 145.948 56.9817 145.762 57.2286L145.685 57.2283Z" fill="#5C3428"/>
<path d="M112.394 113.967L94.4834 122.844C93.1819 123.489 93.1794 124.34 94.5069 125.383C95.047 125.85 95.6025 126.348 96.1114 126.907C96.6203 127.467 97.0365 127.995 97.3287 128.585L104.45 142.952C104.726 143.511 104.941 144.178 105.047 144.937C105.184 145.681 105.244 146.424 105.288 147.137C105.314 148.825 105.962 149.354 107.295 148.693L115.011 144.869C116.312 144.224 116.315 143.373 114.987 142.33C114.447 141.863 113.892 141.365 113.383 140.806C112.874 140.246 112.458 139.718 112.165 139.128L109.151 133.046L112.126 131.572C112.684 131.295 113.38 131.143 114.169 131.177C114.958 131.212 115.685 131.277 116.334 131.419C117.185 131.577 117.742 131.61 118.021 131.472C118.361 131.303 118.347 130.807 117.963 130.032L115.779 125.625C115.394 124.849 115.009 124.538 114.668 124.707C114.389 124.845 114.047 125.324 113.689 126.081C113.409 126.684 113.036 127.333 112.57 127.95C112.119 128.599 111.576 129.061 111.018 129.337L108.044 130.812L103.307 121.254L106.932 119.457C108.017 118.919 108.961 118.722 109.765 118.865C110.569 119.007 111.296 119.227 111.975 119.586C112.655 119.945 113.226 120.319 113.798 120.693C114.338 121.082 114.894 121.27 115.436 121.273C115.653 121.242 115.823 121.197 115.978 121.12C116.226 120.997 116.412 120.75 116.49 120.441C116.569 120.131 116.477 119.713 116.231 119.216L113.863 114.437C113.724 114.158 113.508 113.956 113.261 113.847C112.983 113.752 112.72 113.767 112.41 113.92L112.394 113.967Z" fill="#75B843"/>
<path d="M134.862 112.805C133.718 112.521 132.479 112.748 131.147 113.409C130.124 113.916 129.287 114.64 128.526 115.597C127.811 116.569 127.312 117.822 127.091 119.323L126.615 118.361C126.353 117.833 125.952 117.413 125.411 117.179C124.871 116.945 124.375 117.035 123.864 117.405L118.855 121.24C118.312 121.702 118.033 122.073 117.985 122.444C117.969 122.8 118.261 123.235 118.879 123.78C119.481 124.216 120.036 124.713 120.514 125.288C121.023 125.848 121.408 126.391 121.7 126.981L124.623 132.877C124.899 133.436 125.114 134.102 125.251 134.846C125.388 135.59 125.448 136.334 125.461 137.061C125.565 138.672 126.213 139.201 127.468 138.618L134.843 134.963C136.113 134.333 136.1 133.451 134.819 132.423C134.248 131.972 133.693 131.474 133.184 130.915C132.675 130.355 132.29 129.812 131.998 129.222L128.737 122.643C128.723 121.993 128.834 121.358 129.098 120.802C129.363 120.246 129.751 119.86 130.216 119.63C130.649 119.415 131.052 119.37 131.469 119.511C131.871 119.621 132.164 119.901 132.411 120.32C132.58 120.661 132.842 120.879 133.151 121.035C133.46 121.192 133.769 121.27 134.125 121.287C134.481 121.304 134.821 121.29 135.193 121.183C135.564 121.076 135.921 120.938 136.262 120.769C136.602 120.6 136.928 120.401 137.207 120.185C137.657 119.769 137.983 119.336 138.232 118.826C138.481 118.316 138.575 117.806 138.623 117.28C138.625 116.738 138.565 116.226 138.38 115.699C138.196 115.172 137.935 114.722 137.565 114.287C136.933 113.556 136.052 113.026 134.924 112.774L134.862 112.805Z" fill="#75B843"/>
<path d="M155.26 115.567C156.439 114.596 157.339 113.609 157.945 112.574C158.552 111.539 158.91 110.549 158.991 109.543C159.071 108.537 158.888 107.623 158.473 106.785C158.011 105.854 157.317 105.154 156.452 104.733C155.587 104.311 154.582 104.075 153.515 104.024C152.447 103.973 151.348 104.092 150.203 104.351C149.057 104.609 148.02 105.008 147.059 105.484C145.695 106.16 144.502 107.022 143.524 108.086C142.531 109.12 141.769 110.309 141.255 111.608C140.74 112.906 140.489 114.268 140.546 115.708C140.604 117.148 140.971 118.59 141.694 120.048C142.417 121.507 143.342 122.672 144.453 123.59C145.564 124.508 146.8 125.133 148.083 125.541C149.397 125.933 150.742 126.078 152.135 125.929C153.528 125.78 154.86 125.429 156.13 124.799C157.215 124.262 158.129 123.615 158.936 122.829C159.712 122.058 160.333 121.209 160.8 120.282C161.267 119.354 161.564 118.396 161.721 117.39C161.879 116.384 161.851 115.393 161.637 114.416C161.469 113.688 161.27 113.207 161.054 113.005C160.838 112.803 160.575 112.74 160.312 112.831C160.064 112.877 159.878 113.046 159.707 113.247C159.552 113.479 159.458 113.834 159.441 114.345C159.329 115.444 158.955 116.403 158.288 117.159C157.62 117.915 156.876 118.516 156.039 118.93C154.087 119.898 152.339 119.643 150.781 118.135C152.563 117.368 154.066 116.507 155.214 115.551L155.26 115.567ZM149.331 116.766C149.331 116.766 146.337 114.152 146.547 111.149C146.548 110.994 146.579 110.824 146.611 110.654C146.657 110.515 146.689 110.345 146.736 110.205C147.235 108.876 148.49 107.983 149.898 108.097C151.414 108.196 152.571 109.362 152.783 110.803C152.813 111.02 152.828 111.283 152.796 111.531C152.827 111.593 152.781 111.655 152.78 111.732C152.78 111.887 152.748 112.057 152.702 112.196C152.121 114.842 149.316 116.735 149.316 116.735L149.331 116.766Z" fill="#75B843"/>
<path d="M179.912 102.692C179.001 102.177 178.027 101.848 176.991 101.704C175.955 101.561 174.903 101.541 173.789 101.629C172.675 101.718 171.669 101.791 170.725 101.834C169.781 101.876 168.961 101.857 168.25 101.746C167.539 101.635 167.075 101.323 166.814 100.796C166.552 100.268 166.6 99.7418 166.865 99.108C167.13 98.4742 167.596 98.0116 168.277 97.6737C168.711 97.4587 169.129 97.3675 169.5 97.4155C169.871 97.4634 170.196 97.5732 170.458 97.791C170.752 97.9935 170.983 98.2267 171.184 98.4753C171.353 98.7393 171.522 99.0032 171.645 99.2514C172.045 100.058 172.601 100.556 173.281 100.76C173.961 100.964 174.735 100.89 175.602 100.46C175.943 100.291 176.269 100.091 176.563 99.829C176.858 99.567 177.138 99.2739 177.324 98.9495C177.511 98.6251 177.62 98.223 177.637 97.7895C177.654 97.356 177.531 96.8754 177.27 96.3479C176.824 95.448 176.176 94.8414 175.357 94.5129C174.538 94.1843 173.61 94.0257 172.635 94.0836C171.629 94.157 170.592 94.323 169.539 94.6904C168.471 95.0266 167.479 95.4407 166.581 95.886C165.186 96.5771 164.024 97.3466 163.062 98.2098C162.1 99.073 161.355 99.9835 160.842 100.895C160.328 101.806 160.032 102.765 159.967 103.725C159.902 104.685 160.116 105.584 160.562 106.484C161.07 107.508 161.733 108.223 162.583 108.613C163.448 109.035 164.375 109.271 165.381 109.353C166.386 109.434 167.438 109.377 168.491 109.242C169.543 109.107 170.534 109.002 171.493 108.913C172.422 108.84 173.242 108.858 173.953 108.97C174.664 109.081 175.143 109.424 175.435 110.013C175.727 110.603 175.71 111.191 175.414 111.84C175.118 112.49 174.575 113.029 173.832 113.398C173.305 113.659 172.856 113.765 172.454 113.733C172.052 113.7 171.696 113.606 171.403 113.403C171.109 113.201 170.847 112.983 170.631 112.703C170.415 112.424 170.231 112.129 170.092 111.85C169.662 110.981 169.137 110.467 168.565 110.326C167.993 110.184 167.281 110.305 166.444 110.72C166.072 110.904 165.716 111.119 165.39 111.397C165.065 111.674 164.785 111.967 164.568 112.307C164.35 112.647 164.241 113.049 164.224 113.482C164.207 113.916 164.329 114.396 164.606 114.955C165.052 115.855 165.7 116.461 166.519 116.79C167.338 117.118 168.297 117.262 169.334 117.173C170.371 117.084 171.501 116.872 172.647 116.459C173.808 116.077 174.924 115.601 176.008 115.064C176.442 114.849 176.938 114.603 177.496 114.249C178.069 113.926 178.674 113.511 179.278 113.095C179.868 112.648 180.426 112.14 180.954 111.569C181.481 110.998 181.916 110.396 182.212 109.747C182.539 109.082 182.696 108.386 182.698 107.612C182.7 106.838 182.486 106.016 182.056 105.147C181.502 104.03 180.793 103.222 179.897 102.738L179.912 102.692Z" fill="#75B843"/>
<path d="M202.573 98.8052C202.002 98.3538 201.447 97.856 200.923 97.2655C200.414 96.7059 200.013 96.1314 199.721 95.5418L196.214 88.4664C195.276 86.5735 194.011 85.345 192.357 84.7343C190.719 84.1547 188.986 84.3179 187.096 85.2547C185.949 85.823 184.988 86.6087 184.18 87.6274C183.373 88.6461 182.858 89.9447 182.591 91.5075L176.47 79.1567C175.763 77.4196 173.21 72.1134 168.62 70.5616C163.071 68.7117 156.654 73.052 156.654 73.052C156.654 73.052 159.2 80.3712 164.749 82.2211C167.562 83.1462 170.596 82.4928 172.904 81.6197C173.305 81.962 173.722 82.3353 174.077 82.7393C174.585 83.2989 175.878 85.6733 176.155 86.2319L184.491 103.051C184.783 103.641 184.982 104.277 185.135 105.051C185.272 105.795 185.331 106.539 185.329 107.313C185.417 108.97 186.096 109.484 187.351 108.901L190.419 107.38C191.72 106.735 191.676 105.868 190.38 104.81C189.809 104.358 189.253 103.861 188.729 103.27C188.22 102.71 187.82 102.136 187.527 101.546L184.221 94.8744C184.191 94.4252 184.254 94.0074 184.348 93.6516C184.442 93.2958 184.567 93.0021 184.707 92.7395C184.847 92.4768 185.017 92.2762 185.219 92.1377C185.405 91.9681 185.591 91.876 185.746 91.7992C186.428 91.4613 187.139 91.4952 187.834 91.8852C188.545 92.3061 189.131 93.0208 189.623 94.0139L192.207 99.2273C192.499 99.8169 192.698 100.453 192.85 101.227C192.988 101.971 193.047 102.715 193.045 103.489C193.133 105.146 193.843 105.645 195.129 105.046L202.597 101.345C203.898 100.7 203.855 99.8324 202.558 98.7742L202.573 98.8052Z" fill="#75B843"/>
<path d="M162.693 60.5498C166.526 61.8197 168.26 66.8748 168.26 66.8748C168.26 66.8748 163.841 69.8762 160.008 68.6062C156.175 67.3363 154.442 62.2812 154.442 62.2812C154.442 62.2812 158.86 59.2798 162.693 60.5498Z" fill="#75B843"/>
<path d="M184.578 73.4761C183.298 77.2801 178.249 79.0092 178.249 79.0092C178.249 79.0092 175.276 74.5684 176.587 70.7491C177.898 66.9298 182.916 65.216 182.916 65.216C182.916 65.216 185.889 69.6568 184.578 73.4761Z" fill="#75B843"/>
<path d="M174.576 49.7128C171.297 49.4826 168.32 51.5763 167.151 54.6684C167.041 54.9931 166.948 55.3489 166.854 55.7046C166.806 56.0761 166.728 56.4629 166.726 56.85C166.319 63.8164 173.294 69.9459 173.294 69.9459C173.294 69.9459 179.852 65.4977 181.154 59.3247C181.232 58.9379 181.28 58.5664 181.327 58.195C181.343 58.0712 181.344 57.9164 181.375 57.7462C181.408 57.1888 181.394 56.6159 181.349 56.0582C180.879 52.6961 178.118 50.006 174.591 49.7438L174.576 49.7128ZM175.426 60.54C173.629 61.4307 171.48 60.6787 170.604 58.9098C169.727 57.141 170.461 54.9607 172.227 54.0853C173.993 53.2099 176.172 53.9466 177.049 55.7154C177.926 57.4843 177.192 59.6646 175.426 60.54Z" fill="#75B843"/>
<path d="M54.3638 108.093C54.5355 107.582 54.6918 107.041 54.8634 106.531C55.0351 106.021 55.1758 105.526 55.2699 105.092C55.5049 104.087 55.507 103.39 55.2761 103.002C55.0451 102.614 54.581 102.612 53.8683 102.965L49.623 105.069C48.1976 105.776 47.947 106.828 48.8555 108.271C49.0713 108.551 49.3025 108.862 49.5336 109.172C49.7957 109.468 50.0423 109.809 50.3044 110.105C50.5666 110.4 50.7667 110.726 50.9359 111.067C51.1051 111.409 51.2279 111.734 51.2887 112.091L53.0979 128.202L36.5838 114.585C36.0593 114.072 35.597 113.451 35.1503 112.783C34.7036 112.116 34.3963 111.418 34.1662 110.72C33.5829 109.153 32.5787 108.685 31.1533 109.391L22.1359 113.86C21.4232 114.214 21.1127 114.599 21.3126 115.003C21.5126 115.406 22.0373 115.842 23.0108 116.249C23.8915 116.624 24.7257 117.061 25.5442 117.544C26.3628 118.028 27.0266 118.51 27.5665 119.054L49.7271 138.067C50.2208 138.518 50.7924 138.815 51.4574 138.911C52.1224 139.006 52.7724 138.916 53.3612 138.624L54.7866 137.918C55.3754 137.626 55.8408 137.163 56.1675 136.576C56.4941 135.989 56.6352 135.339 56.5443 134.689L53.8451 110.862C53.8152 110.491 53.8474 110.088 53.9571 109.609C54.0358 109.144 54.1765 108.649 54.3482 108.139L54.3638 108.093Z" fill="#5C3428"/>
<path d="M85.8359 117.311C85.8359 117.311 85.7268 117.558 85.68 117.698C85.6332 117.837 85.5554 117.991 85.4776 118.146C85.3998 118.3 85.2446 118.455 85.0587 118.547C84.6558 118.746 84.3157 118.683 84.0381 118.357C83.7296 118.046 83.4062 117.549 83.0678 116.866L78.7307 108.115C78.0386 106.719 77.2061 105.74 76.2484 105.209C75.2908 104.679 74.2551 104.38 73.1721 104.376C72.0892 104.372 70.9901 104.568 69.8287 104.951C68.6826 105.364 67.5983 105.824 66.5757 106.331C65.801 106.715 64.8867 107.207 63.8483 107.837C62.8099 108.468 61.8176 109.192 60.9335 109.978C60.0337 110.81 59.304 111.674 58.7442 112.648C58.1844 113.621 58.0421 114.658 58.2553 115.789C58.4082 116.409 58.6233 116.921 58.9777 117.402C59.3321 117.884 59.7334 118.226 60.2122 118.491C60.691 118.757 61.2165 118.96 61.7887 119.024C62.3609 119.089 62.949 119.029 63.5839 118.83C64.2808 118.601 64.8232 118.293 65.1803 117.846C65.5375 117.398 65.7709 116.935 65.8962 116.409C66.0216 115.883 66.0231 115.341 65.9164 114.814C65.8097 114.287 65.6099 113.806 65.379 113.418C65.1022 112.86 64.9488 112.394 64.9812 111.914C65.0135 111.435 65.123 111.032 65.2943 110.677C65.4965 110.306 65.7448 110.028 66.0086 109.782C66.2877 109.566 66.5358 109.366 66.7527 109.258C67.4654 108.905 68.1304 109.001 68.7786 109.53C69.4269 110.059 70.0434 110.836 70.5817 111.922L71.4276 113.629C70.3424 114.398 69.1483 115.338 67.8455 116.448C66.5426 117.557 65.4407 118.761 64.4778 120.011C63.5303 121.292 62.8766 122.621 62.4703 123.982C62.0641 125.343 62.2147 126.737 62.8914 128.103C63.6758 129.685 64.9107 130.62 66.5962 130.905C68.2817 131.191 70.1704 130.796 72.3085 129.736C73.7649 129.014 74.8658 128.198 75.673 127.257C76.4803 126.316 77.025 125.234 77.3226 123.966C78.2025 124.651 79.1606 125.026 80.2126 125.046C81.2336 125.081 82.3018 124.822 83.3864 124.285C84.6259 123.67 85.5564 122.9 86.147 121.989C86.7376 121.078 87.05 120.072 87.0224 118.926C87.0237 118.462 86.9475 118.074 86.8557 117.733C86.7329 117.408 86.5479 117.19 86.2541 117.142C86.0994 117.142 85.96 117.172 85.9132 117.311L85.8359 117.311ZM75.057 121.03C75.1493 121.216 75.195 121.464 75.1941 121.774C75.1932 122.083 75.1303 122.424 75.0364 122.779C74.9272 123.104 74.7869 123.444 74.5539 123.753C74.321 124.062 74.0572 124.308 73.7164 124.477C73.1586 124.754 72.6171 124.752 72.0146 124.47C71.412 124.189 70.9339 123.692 70.5648 122.947C69.9957 121.799 69.9218 120.637 70.2966 119.446C70.6714 118.255 71.4327 117.144 72.627 116.127L75.057 121.03Z" fill="#5C3428"/>
<path d="M97.2551 111.536C96.6844 110.929 96.2685 110.324 95.9455 109.672L85.3949 88.3841C85.1027 87.7945 84.6553 87.3591 84.0682 87.1089C83.481 86.8588 82.9083 86.9493 82.3811 87.3652L76.8763 91.601C76.2715 92.094 75.9607 92.5573 75.9596 92.9444C75.9275 93.3468 76.2509 93.8437 76.9145 94.4038C77.5784 94.8866 78.1646 95.4464 78.7353 96.0527C79.2749 96.6742 79.6909 97.2798 80.0138 97.9315L87.8576 113.758C88.1651 114.379 88.4105 115.107 88.5474 115.929C88.7152 116.734 88.7747 117.555 88.7568 118.376C88.8753 120.173 89.6162 120.733 90.9641 120.104L99.0828 116.08C100.477 115.389 100.465 114.429 99.0446 113.277C98.4117 112.779 97.8255 112.219 97.2548 111.613L97.2551 111.536Z" fill="#5C3428"/>
<path d="M109.681 105.377C109.11 104.771 108.694 104.165 108.371 103.514L97.8209 82.2257C97.5286 81.6361 97.0813 81.2007 96.4941 80.9505C95.9069 80.7003 95.3342 80.7909 94.807 81.2068L89.3023 85.4426C88.6975 85.9356 88.3867 86.3988 88.3855 86.786C88.3534 87.1884 88.6768 87.6853 89.3405 88.2454C90.0043 88.7282 90.5905 89.288 91.1612 89.8942C91.7009 90.5158 92.1168 91.1214 92.4398 91.7731L100.283 107.6C100.591 108.22 100.836 108.949 100.973 109.77C101.141 110.576 101.201 111.397 101.183 112.218C101.301 114.014 102.042 114.575 103.39 113.945L111.509 109.922C112.903 109.231 112.89 108.271 111.471 107.119C110.838 106.621 110.251 106.061 109.681 105.455L109.681 105.377Z" fill="#5C3428"/>
<path d="M131.169 95.4622C131.311 94.3479 131.299 93.233 131.085 92.1792C130.918 91.3733 130.703 90.8614 130.471 90.6282C130.24 90.395 129.946 90.3473 129.636 90.4235C129.358 90.4843 129.171 90.6538 128.985 90.9008C128.799 91.1478 128.689 91.55 128.703 92.123C128.607 93.3304 128.155 94.366 127.425 95.2301C126.696 96.0943 125.858 96.7412 124.96 97.1866C122.821 98.2462 120.873 97.975 119.176 96.3422C121.143 95.4831 122.77 94.5607 124.058 93.4975C125.345 92.4344 126.354 91.3546 127.022 90.2115C127.706 89.0994 128.081 87.986 128.192 86.8871C128.273 85.8035 128.075 84.7807 127.613 83.8497C127.106 82.8257 126.35 82.0793 125.377 81.5953C124.404 81.1113 123.321 80.8746 122.146 80.8388C120.97 80.803 119.747 80.9064 118.478 81.2264C117.239 81.531 116.047 81.9287 114.993 82.4509C113.506 83.188 112.203 84.1427 111.086 85.315C110 86.4719 109.145 87.7846 108.568 89.1913C108.007 90.6291 107.74 92.1145 107.797 93.7097C107.854 95.3048 108.252 96.8859 109.051 98.4995C109.851 100.113 110.884 101.418 112.103 102.399C113.338 103.41 114.682 104.097 116.104 104.552C117.557 104.991 119.011 105.121 120.558 104.973C122.106 104.824 123.561 104.412 124.956 103.721C126.133 103.137 127.157 102.398 128.041 101.535C128.894 100.687 129.578 99.7295 130.122 98.7252C130.621 97.7053 130.979 96.6383 131.137 95.555L131.169 95.4622ZM114.357 88.4098C114.357 88.4098 114.373 88.0537 114.436 87.8682C114.467 87.698 114.514 87.5588 114.576 87.3733C115.138 85.9355 116.533 84.9347 118.095 85.0495C119.735 85.1646 121.062 86.4398 121.273 88.0356C121.288 88.2989 121.303 88.5622 121.287 88.8408C121.317 88.9029 121.271 88.9646 121.27 89.042C121.239 89.2122 121.208 89.3824 121.192 89.5837C120.549 92.4922 117.495 94.5855 117.495 94.5855C117.495 94.5855 114.208 91.6919 114.403 88.4255L114.357 88.4098Z" fill="#5C3428"/>
<path d="M147.963 66.4974L143.717 68.6014C142.323 69.2925 142.057 70.3908 142.919 71.7415C143.15 72.0522 143.381 72.3628 143.644 72.6581C143.906 72.9534 144.168 73.2487 144.399 73.5593C144.63 73.8699 144.877 74.2116 145.046 74.553C145.215 74.8943 145.353 75.251 145.414 75.6074L146.303 83.8643L140.27 78.1568C139.73 77.6126 139.268 76.9913 138.868 76.3393C138.452 75.6563 138.144 74.9583 137.883 74.2759C137.285 72.7559 136.296 72.3183 134.901 73.0094L126.287 77.2788C124.892 77.9699 125.184 78.7918 127.069 79.6357C127.965 80.0419 128.83 80.4636 129.633 80.9159C130.452 81.3993 131.116 81.882 131.656 82.4262L141.375 91.6794C142.069 92.379 142.888 92.785 143.832 92.8972C144.775 93.0095 145.673 92.8738 146.54 92.4438C146.54 92.4438 146.681 97.2446 144.199 99.5571C141.437 102.085 139.955 101.274 139.445 101.102C139.12 100.992 138.827 100.712 138.503 100.293C137.917 99.5778 137.253 99.1725 136.465 99.0609C135.676 98.9493 134.964 99.0702 134.282 99.4081C133.879 99.6077 133.507 99.8694 133.181 100.224C132.855 100.579 132.622 100.965 132.451 101.398C132.295 101.862 132.216 102.326 132.261 102.884C132.29 103.41 132.459 103.984 132.751 104.574C133.105 105.287 133.582 105.862 134.154 106.314C134.74 106.719 135.389 107.016 136.085 107.173C136.812 107.316 137.585 107.319 138.375 107.198C139.195 107.062 140 106.818 140.806 106.418C142.231 105.712 150.66 101.535 149.778 90.8776L147.955 74.3481C147.894 73.9917 147.911 73.5582 148.021 73.0786C148.099 72.6144 148.225 72.0884 148.365 71.5935C148.506 71.0986 148.678 70.5883 148.849 70.078C149.021 69.5677 149.162 69.0728 149.271 68.5932C149.726 66.5511 149.264 65.8524 147.901 66.5281L147.963 66.4974Z" fill="#5C3428"/>
<path d="M82.495 148.576L83.9615 149.666L82.5481 151.565C82.2699 151.471 81.9763 151.346 81.7601 151.221C81.5438 151.096 81.3122 150.941 81.0806 150.785C80.5249 150.365 80.2168 149.899 80.1721 149.341C80.1273 148.783 80.3146 148.227 80.7805 147.609C81.2155 147.007 81.7425 146.669 82.3306 146.609C82.9187 146.55 83.5061 146.722 84.1082 147.158C84.4786 147.439 84.8025 147.781 85.0178 148.215L84.3049 148.646C84.1357 148.304 83.92 148.025 83.6266 147.822C83.3025 147.558 82.9469 147.463 82.5753 147.57C82.1883 147.646 81.8782 147.877 81.5986 148.248C81.2881 148.633 81.1632 149.004 81.1777 149.345C81.1922 149.686 81.3306 149.965 81.6393 150.199C81.8092 150.308 81.979 150.417 82.1799 150.511L82.77 149.754L82.0908 149.241L82.5723 148.577L82.495 148.576Z" fill="#5C3428"/>
<path d="M86.2132 152.107L85.2959 153.605L84.462 153.09L86.8097 149.182L87.9525 149.853C88.4931 150.165 88.817 150.507 88.9552 150.864C89.1244 151.205 89.0459 151.592 88.8127 151.978C88.6573 152.21 88.4711 152.379 88.2542 152.487C88.0373 152.594 87.7433 152.624 87.4495 152.576C87.5232 153.815 87.5363 154.621 87.5661 154.992L86.6395 154.447L86.6146 152.371L86.1668 152.091L86.2132 152.107ZM86.6174 151.442L86.8953 151.614C87.1579 151.754 87.3898 151.833 87.5445 151.833C87.7302 151.819 87.8697 151.711 87.9785 151.541C88.0873 151.371 88.1034 151.17 88.0265 151.015C87.9496 150.859 87.7643 150.719 87.5174 150.533L87.2548 150.392L86.6174 151.442Z" fill="#5C3428"/>
<path d="M94.1085 155.654C93.797 156.349 93.3625 156.797 92.8513 157.011C92.3401 157.226 91.7679 157.162 91.119 156.865C90.4701 156.568 90.069 156.148 89.9313 155.637C89.7782 155.094 89.8264 154.491 90.1842 153.811C90.4957 153.115 90.9302 152.668 91.4414 152.453C91.9525 152.238 92.5248 152.303 93.1737 152.6C93.8226 152.896 94.2236 153.316 94.3614 153.828C94.5455 154.355 94.4509 154.943 94.1085 155.654ZM91.0957 154.248C90.8623 154.712 90.7838 155.098 90.8602 155.408C90.9367 155.718 91.1371 155.967 91.4924 156.139C92.2031 156.482 92.7455 156.175 93.2123 155.248C93.6482 154.336 93.5263 153.7 92.8156 153.357C92.4603 153.185 92.1509 153.184 91.841 153.337C91.5621 153.476 91.2982 153.8 91.0957 154.248Z" fill="#5C3428"/>
<path d="M99.6033 160.043L98.5522 159.714L98.7142 157.237C98.7142 157.237 98.7305 156.958 98.7622 156.71C98.7784 156.432 98.8099 156.262 98.8411 156.169C98.7789 156.277 98.7011 156.431 98.5767 156.648C98.4523 156.864 98.3745 157.019 98.3123 157.127L96.9911 159.212L95.94 158.882L96.2633 154.161L97.1753 154.443L96.9357 156.997C96.9034 157.477 96.8249 157.864 96.762 158.204C96.8242 158.096 96.902 157.942 97.011 157.694C97.1354 157.478 97.2442 157.308 97.3064 157.2L98.7518 154.976L99.6328 155.274L99.4703 157.906C99.4703 157.906 99.423 158.2 99.4223 158.432C99.4217 158.664 99.3746 158.881 99.3432 159.051C99.421 158.896 99.5298 158.727 99.6232 158.526C99.7476 158.309 99.8564 158.14 99.9342 157.985L101.271 155.776L102.183 156.059L99.6342 160.028L99.6033 160.043Z" fill="#5C3428"/>
<path d="M105.215 161.398L102.633 160.861L103.575 156.374L106.157 156.911L106 157.685L104.361 157.337L104.157 158.327L105.672 158.659L105.515 159.432L104 159.101L103.764 160.261L105.403 160.609L105.246 161.382L105.215 161.398Z" fill="#5C3428"/>
<path d="M108.685 160.142L108.463 161.876L107.519 161.763L108.043 157.213L109.358 157.373C109.977 157.453 110.409 157.625 110.687 157.874C110.965 158.123 111.072 158.495 110.993 158.959C110.977 159.238 110.852 159.454 110.682 159.655C110.511 159.856 110.263 159.978 110 160.07C110.553 161.187 110.907 161.901 111.061 162.211L109.994 162.083L109.071 160.221L108.607 160.142L108.685 160.142ZM108.795 159.353L109.12 159.385C109.414 159.433 109.661 159.387 109.816 159.311C109.971 159.234 110.049 159.079 110.096 158.863C110.112 158.662 110.066 158.491 109.927 158.367C109.789 158.242 109.572 158.195 109.247 158.163L108.953 158.115L108.795 159.353Z" fill="#5C3428"/>
<path d="M115.814 161.131C115.797 161.565 115.641 161.874 115.331 162.105C115.021 162.336 114.619 162.458 114.093 162.41C113.613 162.377 113.18 162.282 112.81 162.079L112.828 161.181C113.137 161.337 113.384 161.447 113.6 161.494C113.817 161.541 114.002 161.604 114.188 161.589C114.389 161.606 114.559 161.56 114.683 161.498C114.807 161.437 114.854 161.298 114.855 161.143C114.855 161.066 114.84 160.957 114.778 160.91C114.732 160.817 114.67 160.771 114.562 160.708C114.454 160.646 114.284 160.537 113.975 160.381C113.712 160.24 113.496 160.115 113.357 159.991C113.218 159.867 113.11 159.727 113.034 159.572C112.957 159.416 112.926 159.2 112.911 159.014C112.944 158.611 113.053 158.287 113.332 158.071C113.611 157.855 113.983 157.748 114.493 157.766C114.725 157.767 114.942 157.814 115.158 157.862C115.375 157.909 115.575 158.003 115.823 158.112L115.496 158.854C115.248 158.745 115.063 158.682 114.877 158.619C114.738 158.572 114.568 158.54 114.414 158.54C114.212 158.524 114.089 158.585 113.98 158.677C113.856 158.739 113.84 158.863 113.824 158.986C113.824 159.064 113.824 159.141 113.87 159.234C113.901 159.296 113.947 159.39 114.04 159.421C114.117 159.499 114.318 159.592 114.642 159.78C115.059 159.998 115.352 160.201 115.506 160.433C115.645 160.635 115.737 160.899 115.736 161.209L115.814 161.131Z" fill="#5C3428"/>
<path d="M122.882 161.997L121.344 158.584C121.466 159.296 121.558 159.792 121.588 160.009L121.86 162.116L120.993 162.237L120.403 157.697L121.703 157.517L123.21 160.868L123.901 157.278L125.217 157.129L125.807 161.668L124.893 161.773L124.637 159.619C124.637 159.619 124.606 159.402 124.576 159.263C124.545 159.123 124.531 158.783 124.471 158.194L123.748 161.876L122.882 161.997Z" fill="#5C3428"/>
<path d="M131.039 160.466L130.47 159.473L128.844 159.853L128.794 160.999L127.788 161.227L128.282 156.382L129.428 156.124L132.077 160.223L131.07 160.451L131.039 160.466ZM130.023 158.728C129.5 157.827 129.177 157.331 129.13 157.237C129.069 157.113 129.023 157.02 128.992 156.958C128.976 157.237 128.958 157.903 128.893 159.017L130.07 158.743L130.023 158.728Z" fill="#5C3428"/>
<path d="M134.266 157.63L134.849 159.274L133.92 159.58L132.401 155.269L133.655 154.84C134.244 154.626 134.723 154.582 135.063 154.722C135.434 154.848 135.681 155.112 135.819 155.546C135.942 155.794 135.91 156.042 135.848 156.305C135.77 156.537 135.614 156.769 135.412 156.984C136.4 157.732 137.033 158.23 137.327 158.432L136.304 158.784L134.699 157.493L134.204 157.661L134.266 157.63ZM134.02 156.901L134.299 156.763C134.609 156.687 134.826 156.579 134.919 156.456C135.043 156.317 135.028 156.131 134.967 155.93C134.906 155.728 134.798 155.588 134.597 155.572C134.427 155.54 134.21 155.57 133.916 155.678L133.668 155.8L134.067 156.917L134.02 156.901Z" fill="#5C3428"/>
<path d="M142.516 156.131L141.525 156.622L139.61 155.329L139.361 155.762L140.084 157.22L139.185 157.666L137.279 153.508L138.147 153.078L139.023 155.002L139.133 154.367L139.603 152.434L140.564 151.958L139.968 154.495L142.485 156.146L142.516 156.131Z" fill="#5C3428"/>
<path d="M146.53 153.871L144.252 155.194L141.974 151.22L144.252 149.898L144.606 150.612L143.195 151.426L143.703 152.296L145.052 151.511L145.405 152.225L144.119 152.979L144.704 154.003L146.145 153.173L146.561 153.856L146.53 153.871Z" fill="#5C3428"/>
<path d="M149.925 151.609L149.119 152.163L146.962 149.057L145.954 149.75L145.507 149.082L148.344 147.096L148.791 147.764L147.783 148.457L149.94 151.562L149.925 151.609Z" fill="#5C3428"/>
<path d="M154.778 147.773L151.679 144.4L152.392 143.737L154.968 146.52L156.317 145.271L156.873 145.846L154.809 147.758L154.778 147.773Z" fill="#5C3428"/>
<path d="M159.558 143.008L158.906 143.718L156.144 141.182L155.321 142.092L154.735 141.533L157.063 138.987L157.649 139.547L156.827 140.457L159.589 142.993L159.558 143.008Z" fill="#5C3428"/>
<path d="M162.131 136.05C162.733 136.486 163.072 137.014 163.132 137.603C163.192 138.192 162.989 138.795 162.507 139.459L161.746 140.493L158.103 137.737L158.958 136.579C159.393 135.977 159.92 135.639 160.492 135.548C161.065 135.458 161.606 135.615 162.177 136.066L162.131 136.05ZM161.571 136.869C160.784 136.293 160.15 136.336 159.606 137.031L159.311 137.448L161.704 139.238L161.968 138.914C162.527 138.173 162.42 137.492 161.618 136.884L161.571 136.869Z" fill="#5C3428"/>
<path d="M164.747 135.488C164.747 135.488 164.531 135.286 164.5 135.146C164.439 135.022 164.517 134.868 164.61 134.744C164.688 134.59 164.796 134.497 164.936 134.467C165.06 134.406 165.199 134.453 165.338 134.577C165.461 134.67 165.554 134.779 165.584 134.919C165.646 135.043 165.568 135.197 165.49 135.352C165.412 135.506 165.304 135.599 165.164 135.629C165.04 135.691 164.901 135.644 164.762 135.519L164.747 135.488Z" fill="#5C3428"/>
</svg>