<svg width="49" height="51" viewBox="0 0 49 51" fill="none" xmlns="http://www.w3.org/2000/svg">
<path d="M44.085 24.974L48.468 17.22L39.714 18.861L37.406 13.655L28.234 25.295L33.57 6.925L27.992 8.076L24.234 0L20.477 8.076L14.899 6.925L20.234 25.295L11.061 13.655L8.754 18.861L0 17.22L4.383 24.974L0.203003 28.842L14.091 33.725L10.839 40.385L22.484 37.855V48.468C22.484 48.9321 22.6684 49.3772 22.9966 49.7054C23.3248 50.0336 23.7699 50.218 24.234 50.218C24.6981 50.218 25.1432 50.0336 25.4714 49.7054C25.7996 49.3772 25.984 48.9321 25.984 48.468V37.855L37.634 40.385L34.382 33.725L48.27 28.842L44.085 24.974Z" fill="#ED1C24"/>
</svg>