<svg width="40" height="40" viewBox="0 0 40 40" fill="none" xmlns="http://www.w3.org/2000/svg">
<path fill-rule="evenodd" clip-rule="evenodd" d="M30 13.888C29.4752 14.7093 28.827 15.408 28.0552 15.984C28.0655 16.1333 28.0707 16.304 28.0707 16.496C28.0707 17.584 27.9189 18.6693 27.6154 19.752C27.3118 20.8347 26.8462 21.8693 26.2185 22.856C25.5908 23.8427 24.8448 24.72 23.9805 25.488C23.1162 26.256 22.0795 26.8667 20.8704 27.32C19.6614 27.7733 18.3623 28 16.9732 28C14.8123 28 12.8213 27.3973 11 26.192C11.319 26.224 11.6277 26.24 11.9261 26.24C13.7371 26.24 15.3526 25.664 16.7725 24.512C15.9288 24.4907 15.1751 24.2187 14.5114 23.696C13.8477 23.1733 13.3872 22.5067 13.13 21.696C13.3769 21.7493 13.6239 21.776 13.8708 21.776C14.2207 21.776 14.5602 21.728 14.8895 21.632C13.9943 21.4507 13.2509 20.9893 12.6592 20.248C12.0676 19.5067 11.7717 18.6507 11.7717 17.68V17.616C12.3171 17.936 12.9036 18.1067 13.5313 18.128C12.9962 17.7653 12.5743 17.288 12.2656 16.696C11.9569 16.104 11.8026 15.4613 11.8026 14.768C11.8026 14.0427 11.9775 13.3653 12.3274 12.736C13.3049 13.984 14.4882 14.9787 15.8773 15.72C17.2665 16.4613 18.7585 16.8747 20.3534 16.96C20.2916 16.6613 20.2608 16.352 20.2608 16.032C20.2608 14.9227 20.6415 13.9733 21.4029 13.184C22.1644 12.3947 23.0801 12 24.1503 12C25.2822 12 26.234 12.4267 27.0057 13.28C27.8803 13.0987 28.7035 12.768 29.4752 12.288C29.1768 13.2587 28.6057 14.0053 27.762 14.528C28.544 14.432 29.29 14.2187 30 13.888Z" fill="white"/>
<circle cx="20" cy="20" r="19.5" stroke="white"/>
</svg>
