<svg width="40" height="40" viewBox="0 0 40 40" fill="none" xmlns="http://www.w3.org/2000/svg">
<path fill-rule="evenodd" clip-rule="evenodd" d="M18.5434 22.4498L23.6725 19.8092L18.5434 17.1307V22.4498ZM20.5 13.313C21.6905 13.313 22.8366 13.332 23.9384 13.37C25.0402 13.408 25.8508 13.4396 26.37 13.465L27.1489 13.503L27.3199 13.522C27.4338 13.5346 27.5162 13.5473 27.5668 13.5599C27.6175 13.5726 27.6998 13.5853 27.8138 13.5979C27.9278 13.6106 28.0291 13.6423 28.1177 13.6929C28.2064 13.7436 28.3077 13.7879 28.4217 13.8259C28.5357 13.8639 28.6433 13.9336 28.7446 14.0349C28.8459 14.1362 28.9473 14.2312 29.0486 14.3198C29.0992 14.3578 29.1562 14.4211 29.2195 14.5098C29.2829 14.5984 29.3842 14.8074 29.5235 15.1367C29.6628 15.466 29.7578 15.8206 29.8084 16.2005C29.8591 16.6564 29.9034 17.1377 29.9414 17.6443C29.9794 18.1509 29.9984 18.5561 29.9984 18.8601V20.7218C30.0111 21.7476 29.9478 22.7734 29.8084 23.7992C29.7578 24.1792 29.6691 24.5275 29.5425 24.8441C29.4158 25.1607 29.3019 25.3823 29.2006 25.509L29.0486 25.6799C28.9599 25.7812 28.8586 25.8762 28.7446 25.9649C28.6306 26.0535 28.523 26.1169 28.4217 26.1548C28.3204 26.1928 28.219 26.2372 28.1177 26.2878C28.0164 26.3385 27.9151 26.3701 27.8138 26.3828L27.1489 26.4778C25.3758 26.6171 23.1596 26.6868 20.5 26.6868L16.6816 26.6108C15.5925 26.5854 14.8896 26.5601 14.573 26.5348L13.6611 26.4398C13.4078 26.4018 13.2179 26.3701 13.0912 26.3448C12.9646 26.3195 12.781 26.2435 12.5403 26.1169C12.2997 25.9902 12.1034 25.8446 11.9514 25.6799C11.9008 25.6419 11.8438 25.5786 11.7805 25.49C11.7171 25.4013 11.6158 25.1923 11.4765 24.8631C11.3372 24.5338 11.2422 24.1792 11.1916 23.7992C11.1409 23.3433 11.0966 22.8621 11.0586 22.3555C11.0206 21.8489 11.0016 21.4436 11.0016 21.1397V19.278C10.9889 18.2522 11.0522 17.2263 11.1916 16.2005C11.2422 15.8079 11.3309 15.4596 11.4575 15.1557C11.5842 14.8517 11.6981 14.6301 11.7995 14.4908L11.9514 14.3198C12.0527 14.2058 12.1541 14.1109 12.2554 14.0349C12.3567 13.9589 12.4643 13.8892 12.5783 13.8259C12.6923 13.7626 12.7936 13.7183 12.8823 13.6929L13.1862 13.5979C13.3002 13.5599 13.3825 13.5473 13.4332 13.5599C13.4838 13.5726 13.5662 13.5599 13.6801 13.522C13.7941 13.484 13.8511 13.4776 13.8511 13.503C15.6242 13.3763 17.8404 13.313 20.5 13.313Z" fill="white"/>
<circle cx="20" cy="20" r="19.5" stroke="white"/>
</svg>
